<mxfile host="app.diagrams.net" modified="2022-01-09T14:24:49.363Z" agent="5.0 (Windows NT 10.0; Win64; x64) AppleWebKit/537.36 (KHTML, like Gecko) Chrome/96.0.4664.110 Safari/537.36 Edg/96.0.1054.62" etag="XUleekHzRB9Ip5n7WRLe" version="16.2.4" type="github">
  <diagram id="K_oJoSixecm8XU8YlPXT" name="Page-1">
    <mxGraphModel dx="1038" dy="539" grid="1" gridSize="10" guides="1" tooltips="1" connect="1" arrows="1" fold="1" page="1" pageScale="1" pageWidth="850" pageHeight="1100" math="0" shadow="0">
      <root>
        <mxCell id="0" />
        <mxCell id="1" parent="0" />
        <mxCell id="O7_YgNS9Y1SkJ02Ty1PF-13" value="" style="endArrow=classic;html=1;rounded=0;exitX=1;exitY=0.5;exitDx=0;exitDy=0;exitPerimeter=0;entryX=0;entryY=0.5;entryDx=0;entryDy=0;entryPerimeter=0;" parent="1" edge="1">
          <mxGeometry width="50" height="50" relative="1" as="geometry">
            <mxPoint x="388" y="398" as="sourcePoint" />
            <mxPoint x="520" y="398" as="targetPoint" />
          </mxGeometry>
        </mxCell>
        <mxCell id="O7_YgNS9Y1SkJ02Ty1PF-14" value="" style="endArrow=classic;html=1;rounded=0;exitX=1;exitY=0.5;exitDx=0;exitDy=0;exitPerimeter=0;entryX=0;entryY=0.5;entryDx=0;entryDy=0;entryPerimeter=0;" parent="1" edge="1">
          <mxGeometry width="50" height="50" relative="1" as="geometry">
            <mxPoint x="598" y="398" as="sourcePoint" />
            <mxPoint x="720" y="398" as="targetPoint" />
          </mxGeometry>
        </mxCell>
        <mxCell id="O7_YgNS9Y1SkJ02Ty1PF-15" value="" style="endArrow=classic;html=1;rounded=0;exitX=0.5;exitY=0;exitDx=0;exitDy=0;exitPerimeter=0;entryX=0.5;entryY=1;entryDx=0;entryDy=0;entryPerimeter=0;" parent="1" edge="1">
          <mxGeometry width="50" height="50" relative="1" as="geometry">
            <mxPoint x="349" y="359" as="sourcePoint" />
            <mxPoint x="350" y="280" as="targetPoint" />
          </mxGeometry>
        </mxCell>
        <mxCell id="O7_YgNS9Y1SkJ02Ty1PF-16" value="" style="endArrow=classic;html=1;rounded=0;exitX=0.5;exitY=0;exitDx=0;exitDy=0;exitPerimeter=0;entryX=0.5;entryY=1;entryDx=0;entryDy=0;entryPerimeter=0;" parent="1" edge="1">
          <mxGeometry width="50" height="50" relative="1" as="geometry">
            <mxPoint x="759" y="359" as="sourcePoint" />
            <mxPoint x="758" y="280" as="targetPoint" />
          </mxGeometry>
        </mxCell>
        <mxCell id="O7_YgNS9Y1SkJ02Ty1PF-17" value="" style="group" parent="1" vertex="1" connectable="0">
          <mxGeometry x="120" y="20" width="840" height="100" as="geometry" />
        </mxCell>
        <mxCell id="O7_YgNS9Y1SkJ02Ty1PF-6" value="" style="rounded=0;whiteSpace=wrap;html=1;" parent="O7_YgNS9Y1SkJ02Ty1PF-17" vertex="1">
          <mxGeometry width="800" height="100" as="geometry" />
        </mxCell>
        <mxCell id="O7_YgNS9Y1SkJ02Ty1PF-5" value="" style="shape=image;verticalLabelPosition=bottom;verticalAlign=top;imageAspect=0;image=data:image/png,iVBORw0KGgoAAAANSUhEUgAAAOEAAADhCAMAAAAJbSJIAAABOFBMVEX///8xKWVbVID/bkL0iWrsVzUvJ2RdVoH/ZjUuJWP0i2wQAFYaCVn/Yy8kGF4rIWL/491mYYb/qZQ0LGfQz9n/ajv/v7H/xbfybkYhFFxPSHhUTXvrUzAnHF8AAFM9NWxGP3I6MmqfnLGysMH/mYD0hGPe3eQlJmZDO3Dr6+/19ffGxdHzWTLxXyx7d5b/XyfuZUX3rJrxZDb/184ZB1m7ucjyfF3vbU2Kh6ERImf/8/CioLTk4+ndZktva437ckRdN2DAW1HVY0yPSVlJUoT6y8B2QF1IMGOTkKj/eVP/l314dJT3qZX96ub4tKPymIjqQhGCWXXwgm6OVWfSeGlNKV1rNlymRU7GTkTZUj3rQw+HPFWdQlDdrqm0SkynUlVwVXm7XVijXmizYmQpN3OYTFj/WRoAAEjjwJTBAAAUi0lEQVR4nO1d/1/bOJqOA8goNnGpwxfbOLZJQ5wEQgsBEqDQdkpLpy1zs7PT3bnZu5252Zn5//+D0yvJthzLTto9cO/z8fMDJI7t6PH7VdIrpVarUKFChQoVKlSoUKFChQoVKlSoUKFChQoVKlSoUKFChQfHYK81POl0OifDYevycy/+eLx19+zDh2d3m1vHj87vo3n/Hlqdka0FoW8rvk3h6cb67bC/4OXnd93TboLT7r029rOxd6Fq2DB9z3bqgV1X6xSqExq6pkyGC9xh87S7nELj3hu9OC53Tcuzw8APgKGPg7rDOapq3Vawq2tX80h+mOG3vPzkQdq+CIZO20Sm44eK79uOY2MFIYR9LkbCMkSKYujWbZG6PskQXP7uwRgUo4M106nbyAwDO3TMMPSAkKIgL6ZY9zE5hNz2+72cm5w3sgS7Hx6URx46TQvbjl2v23aghn6g2qrtmAg4YjuRom1S1kb7SirHj1l+hOHdQ5ORYIisgNAhnqWumsirm6FKLI+YHiVkeglHX2Fw9dvsbY5PJQSXu1sPT2gGg5Hn1OuObYJXUT0vVBUlJOZIDqoB0PFsOxKiGioRR2/W59xtN6QMj0thJeDEd1TaeD/w7IAI0q87pl03sUIo2giDovqxDMEQGUWM3w/E+3z3HzIdJQw/lsWMY2TXEzNTVadO+KrEgeLAcckhoqlET53oDMIXBWbgIaU3nb79/vjmZmtrc3Nr6+b4L/s7XakMT8vld+k49RRUqqq2EyBsEJ5EvjaRmcfOssG9EikTeU9/+OuykLh0V3ZWdk6lDL8tleAwrMsQOiFCzPgCH9SUhEmVRguqnybJBv6SUslGY2dlZeWpjGG5rvTCl/FzQk8l8Z54V0d1mK+JoiI3wd6PKa8JxIChVE27j0okeGtL+KkQBk0Pm4FiEofjc+eJILexmQx7n1I21yB0GysrOUIsM++eSAnSvIXEQB+8q2EGXGxEiuQAfTf9eV+UV+PsrLHceAoMJZZYZjQcaaqEIReTgjB1O1gxowCoYMX2QIJ/26cCW2ZsGk+BV+N0hx7MMiyP4O0YOVmKqsllhkz63sC+j2KO8Ar9yAhyNoTgCpEhV9OMnp6WZ4UdjSScMjcTyZDHQKKsXkKRWuGb/YRN42yHv2BC3DlLUSwx2rfahIREhiRShJi7lliugZKm+DOjuBPZH7VJZokpit3l8gYwBmMiFyzhB4RIpoaIHSYSZs4nwfS/OcXTBuPFWDHJ7jxtcI7dMru+tgEJtUyElCNEw6Q/QRyOb6Y4Tv++zy2xcUZZgddpdHe4gXYpx+7jEgneWkoRQ2KNSBE/tO0Zir2feA7DzY86mMifEjESjqXmMntt2swwl6Hq4JQKk2Q1iiKRU41dTaSvIkWSpO5vlkiwFtDWolDqaRil0BTokVBvh0oKvbf7LF5QZxolAA1IwCn+86ZMgrsWk0M9X4j1evKRY9tOiP0graZxXsMDIafICO/slJmM1gYaaysKpXn3DFHbDEIbI8RHNGKGNLE5awiqydK4Rhd8T7kDF+9dZSbgFSAkfUFER6NU1RMZ/mM/Smu4nkZJaYOg3IGLyzZvJHbmE7Qd8DoIKYEXOKIpok/7cSCExI250GUaJhrl9phqVwZvY1BghYmWgpcxaW6aDvs90fqeRmHirNvokq7xaZlDM4kIZVmphKIT2nU/ndMkhiik35wjzdpKHZqZcCtUFhOhHWDiSLMESQ9yX+hMRLbIjbHMXm/kSIknXYQhxHksoZf4mh1Osft0Z4cEQ+ZQy5yp6FiRq1hESVVHJj2O6U9ipk0c6NnTM9YrLjVh8yOJyLtOaX6+lyM/dgdzJc60ozDBOxUlJjSXWtS+nK5TCkX8QE9f7EcutNFI+JU7yr3bjBnO1VInKCZIx9yiRPvs9PRpPAxVpitNeghzMxp1jgQpxR9X9uMwkQy/lehoBu2kdQW9QwZJEMxSVP4eUUwMsswBxBNLaJ1dSFGYRyvE9NNP+wScIlPSEstL4nAPKLRE1QkWECEV4/Ttz28+iSOMZQ7P+CnbCtR8KdoL8gOgXi8aYYT4X+IQaa3WTjXMVL1cGyx2M8icPTL9RzTC2P2vEgnuaalWYVUaFIlkVbNQhOjti8zn0Qjj/g+TEhmmHA0EDN8WiZG3qodx6NXVQgn23n7Ty7J+DV51Z//71+slMrxophsVqkhwLR7p6Zr8eFggw96Lf0oIhurrn0hM/IVoeIkMU66UTr6EcVRUFZQcL8q4e59eTrNHaQKx8hOdKB7Mb8l9Yd2YaZdpG3Ftnic2V81lOH3zSkKQhZ5fmJf67FrN/zs4sx4Sq4EZyzDV3jyG09+fywiKGZLdKo+hpDPkRJV5Aieo18sj+KucoNjbLJOhm5VMgDDrKCYMkR/68oELNH151pNKFwnjdvYiRaj3hHG2dSiuPWQj/cSbIpgWdUyMZs9Gvec5BNMyLJGhJm0cG7ChQZ64GDUALTWJ7kJmmhrmDs6e5xBMdajLZGhJG8fHM2yimDiuVMCm53mKFygYcYXtvbjOJ/i1MMzJxVhnWHUUqLLkvULkwey9qqq249BD0zdFBL8Whnn5NDZtOoUGf4LI/GwT0jqTVdGSKFFIkMSdr8KXqrMRP2lgADXB0EolCJj10coSTpc40etXRQTF2VY7r0T6AfA+lyHhgjGOJDmrzaj36vrVtLC7IYyg+4uuy7gH3DaLGkkkGfpUU7304d7bs3kESSqbMCyPYDLgndtQ4CjURVEl7X3avpYl2+krEzV1SmTY0ue0U4GCZ5Wn3Qibvh9402+ur3+dRxBmIzlFZ1Qiw7405M82ta6SnA2ivq2qYf31r9fXv/3LK9RR+jyivM3ZLZFhrbnA+BIUOdu+79OCUr/+6vr6f16TA/PHh6kQQ7XMcJjM/xZTxCTyBz7tc/xydn39w2vIB+y5l0G8Qcgus3tYq13MczVRa0mcJ7Re/3C9ff39a9Z/hIKMYhWADgny7DIJzg62FQH79de/XW9v/yKkY878gX7slznUVsvLvWVA1ATPUmPGaiZUZhnaJ6US/Dhy57QwxhRM8FV9Fva8oeIyx6Fqta3acIGIyAiCCb58nWFYL74MeVdlEtw8J938hfih6a+E4G8SgranFPkbHJappFtQijVZRE175nNC8AcJwbpd9/0A5XpVHJaopI/oUs5FvOn0xTbBLzKCzOEEfiCfe0OoRE96zifX57gK0NDfiQCfF02fkh6WKk1ykFJi7/eIT8yezPE1PdIXlPuYWZqSOWJDLY/gaVzigguF2AMNvf79X/MLplRJ+DfKy0k/JIsAOwVCpBq6vf1piosn+Zk1Zhga5XUNjw+EN/mznz0EGvr8bY92E+cp6dckwvM/xJrdYZ47nX4CDX3JxyuKGUp1tLy50bN0dYQj7UOh6T+Jhl5/w7vzqFCIMgkio7RBtscH6feX7UzrYLjpOZjgi3h6t6hIWjpHbEhW6D8Mjv+YLRW8zXQx0PQbEOCrnjh/XcBQYsvYL4McxdFy5lA4EzGoiyFBIj1kGOQ6VMkkOHJLC/bfHmaLsC7b6YVab8DFnL2YKUBAOKf2TSbCZmk6enPwTHK0I/jTXu8lCPBlT1JhYUoJSjK2EkPh0ZH08Cg2RRIjwMW8kQ6JYokQVUlqi43ShvI/HOSUQvKQwQX4yswKkAoxw1BVZVUM49KM8OPBdt5HJmxxQSxQ4mISmLMM7UA2w691HpJUCo2D3KLyQRP3TCpAmqbJRZhmqDryDr5W3jD3o3wR1mp9GgMLBJhZlKEq0jO10txorbZ8VFCQfL5cLEAlXUSSu/qiTIKPDuSOlOLugPAjaWjhIK8oQqmLUVD74uEIZfD4KHc59fH20fb2weP14h6/YIaqKl1egtuljgAfHeUUJH9cJvyOzh7B5hhFMozDoWTqm8JwS5y0J3LKifbn3xEFPeIm2mnnj2okjibwpE5GV0sd4a49O5JuYPTsgHiYg3ibuMswdzIjXhslGbGgGlqmCQKWjyRryO6OwAC/FVcm3bbzphV52aIv1VC93JlCwHYmVpw/OwB+s8t0Lx25NYKjUR0/W8NH4GplC7CWZfjxO+B3dCpZaD1UdIk5erCx2WxfkvFrT8q1QIblI3F85uaU2l/eQvIOknAkDGVj2257VGJVkABicjwrPb95QsV38KRgPcuJrc1M24ArzZggtrTJ18GP4Iio5Ie7Z0+2gd710fbdnCVXe5OxLtQRQ7CYGXIi9Jzy+hFZPCJ+8wh8J/m7/WGh5UjDkaVZRkTLERchYldv1y++GvFxPDs7IDh7svkZq632Lq5cTbdc18A4DKCkz3AtXdOc2+HX4F2yOP+S1YCDVud2tG6bhusqYf1qcjEsPfZVqFChQoUKFSpUqFChQoUKFSpUqFDh68EFTMQsOiTagrnFeSffbMW4OU5tNXi+JeLmgTbPWm9irC06a72rk5PnVEI9+mM1wdra2rfJrNDjw1URa4fLD7H1MGzQoy068gs7MOrzGK4tpbCx9i4S5OONpZnPDh/gF3funSHw4KLKMFxaWr1/ig/AcGnpkEmRM9wAFY3IHt67ot4Xw41DgrVVLsV39CPGcOPJM4IP7zjdf0OIg5w5sX5f9IYJw/78OTTYGU2fdUuD1P04Q9Lw8/Pzj5sbG4KkGMM1LrVvOUX2bqiurwvLGDvkLazxH62z//HB9ejLWleaprW93eRcisuJ2SYf6OtxURNn2HHI8bbKDg/IjdSEyCW87ffJX5v+BAi8jWZMW6MmfJG9G7PkDKO5di7Ex1mGXNiH/OGNDSOp5xy0DcP1yQvy32hH91ab5ByuQqM2nfDElttfbybnjNoum/009KCfMNRbNpvPNzS6SqtP7tusxwzpHfpDzWCTqJh8qcsXb69rbPoYW1r0zGYY3jBFvc4y/JhiCPtVJ5X/sP5chztC4bYWMWRtpS8ntHINNgrCGHYz4+fYUCbU1HULfnizOYivQhgrfKcvty4IlgE2ZTDW02ttMavw9lwgN9ZdoZhvhmHtMOGRZni3KpgoefrkJnGsNZGCmrV8hvTHOpCl26Zm0J252Tmw4gJbF61WB37rwh3FVxF6Y9dujuFUHTSlRW7sRvWVt+yrW39qrKjBArWksl4n793wZK81gYa0W1KGXFLnMcPVm/OPBHfsg7WoOAaWgfI21VpjIondAoZULmMQcl+ljWLnaK7b9NjZsKMLU13KEAdgdS0oY2OPDgq+dH5fInEcwr0u+0DWOulfXlL5wnPgwoRlVVzHZhkuzTJcgkxnjbtZIR4KygaNYs2TM6QbB+t8SVkgyHA0GvGTYWWw+DTYYbpJCK1Phy1fLGZZsDrT4i4gHS2uBF2GfX6Yjs0yfMdEJTAUsCFUioIZWFTV++1YnHKGsF8LDvhRurmnNpstg9tnDOCqeGEItJNrBxGcHT/aSJxphiC3UGgeu83nMewKBQfEaSHabNg0iOfKcoYgADdafTzQZhn2W51baDYTjOCf2OMw3sMrEDL9kj3RJFMM4RN2ci12Rwsx3KDgFFcTinB3qgdgF078FCUM4cxmXGKXOqd1a7c13WqC6iYMY7cJ0mfthH3c6VMCF9eOcoEUQ+pcA/Yb3jb9qVJPxjBjhxuNx08I3jFD3Eh2OgdhGFfMLiIjkzMEIVtx8BTOGQYaxEPsNg05w70xRHT6UjUUpNWouhpxrpFiyDa3xQx0kzAsY5jxpelosXSYdBPhp2KIgyEKhgyZfObKcKIReiQF8UcXIyOfoRpLiJwBGp/0CLMyNPQEmiFjmBsPuf6uJr8RBXrfvOhrQvPlDC9EO0zOuQDPYO1SC75oigzHUYY21JNlryQLIP4/wOIawxRDptJ7rQR9CcPjtbycJgqPgjuFXwUPqQuISNHWR0YC2zrRr4d24mhPHLoRFr1gDNsfCNEiYWhFGRf1UTzqwnOyKKWkMD/F8FKTrgKeYfhuI3k7w7DLGArL7MACkZu0gQXmqHk0mNGvp6+ikQka0YEhVYFd8cKYYdzOOk4smDphSMespAVJkKHPFzFTzWd4fsP7SGuSvgWX7qpY8Wux8sGkOweOLlIiunsge8BQ4YtMKttbXREYRrpLl+cnDBWNea4T8dHU+LY2TWF9EzgXHC86fO8mz2PiImQJET/dP1xaqiUMNx5vAp6sCV42Ats+z0iyfroG3fCH/f7Qpu1hDDuwXQvWrm4nASvJB4Y00xlTKmyppcBQ0Xb3Bnu3cDixOr5fSFuIpZBskO+bTCYQISH9RezhTMYIofaewDAF3pEX+/hRJz/dA6ZfEIeKSFoK1kmPD6NEhjVG12iSLMGK89IRPB/de3/lWigdLRQDXOyYPr920oWneyzHMZ3iyqU1p65LQ+TEAor1yciFwzozHgnDQ758QDJOs7FRSwEyQYyEA5daVO1q4FGSnQw8rtBGu5NkbWBVJNIYCGvpaIGv4tUX4oqtoSUqLbuxy2ummX9bp8riQr+R3LMmZ7i6Fi0WzDJcezdTJkoT4tSCgEtTd6HaVbMHu5plxRLYdTVdH7dJT70dMxysa00DY1dvtoZtci5lqI7JK9I1hk8MK7VcBHwNntmnbHDV1i2CP5kHv9B0qLk1mlr8s/Kp8dLVtcN3SbzLjJe+y6yy83HWe52MHFudEGaDi05HKMe+bA1bQCxhSCznVrWdEThDcuoFPbhHriKNu9xdt+2ri1SGPhMqIo5Dcm0nPnwyUcmFt8Lw1NZmgptHoozON0VsHWfLfFuaGMrzAR24uK3UP86/RgLI9d0vuvKLIXbICtAnvXGtyd/QRMz/km+jHaKHXSMDrnShDX1guY/Fwxg8FfeLFnwKfe6HAoTD8SK7wUya1CteDvqtdfCH7S9ZTSCOmzwUrKgPPBcGBDkXBkbhxfiLRDhyZ0PFveOk3Wy2F1u7Mgj1eNlLHKg+E39aTf2Bd4UYXBAsevJFU7Oartu0NP8LdznqkG/72tbKpNHq3E4muyfVopAKFSpUqFChQoUKFSpUqFChQoUKFSpUqFChQoUKFSr8v8L/ArD2S6t79DsJAAAAAElFTkSuQmCC" parent="O7_YgNS9Y1SkJ02Ty1PF-17" vertex="1">
          <mxGeometry x="4.846177145082428" y="7.692307692307692" width="109.8466819552017" height="87.17948717948717" as="geometry" />
        </mxCell>
        <mxCell id="O7_YgNS9Y1SkJ02Ty1PF-8" value="NoSQL Cassandra Compatible" style="fillColor=none;strokeColor=none;html=1;fontSize=11;fontStyle=0;align=left;fontColor=#596780;fontStyle=1;fontSize=11" parent="O7_YgNS9Y1SkJ02Ty1PF-17" vertex="1">
          <mxGeometry x="187" y="7.6875" width="174.61" height="29.8125" as="geometry" />
        </mxCell>
        <mxCell id="O7_YgNS9Y1SkJ02Ty1PF-9" value="YCQL" style="rounded=1;arcSize=9;fillColor=#F7F8F9;align=left;spacingLeft=5;strokeColor=#DEE1E6;html=1;strokeWidth=2;fontSize=12" parent="O7_YgNS9Y1SkJ02Ty1PF-17" vertex="1">
          <mxGeometry x="186.9953143524728" y="39.74358974358974" width="113.07746671858999" height="42.3076923076923" as="geometry" />
        </mxCell>
        <mxCell id="O7_YgNS9Y1SkJ02Ty1PF-11" value="YSQL" style="rounded=1;arcSize=9;fillColor=#F7F8F9;align=left;spacingLeft=5;strokeColor=#DEE1E6;html=1;strokeWidth=2;fontSize=12" parent="O7_YgNS9Y1SkJ02Ty1PF-17" vertex="1">
          <mxGeometry x="583.0077145082427" y="39.74358974358974" width="113.07746671858999" height="42.3076923076923" as="geometry" />
        </mxCell>
        <mxCell id="O7_YgNS9Y1SkJ02Ty1PF-10" value="SQL Postgres Compatible" style="fillColor=none;strokeColor=none;html=1;fontSize=11;fontStyle=0;align=left;fontColor=#596780;fontStyle=1;fontSize=11" parent="O7_YgNS9Y1SkJ02Ty1PF-17" vertex="1">
          <mxGeometry x="583.0036760272885" y="8.337500000000002" width="355.3863239727114" height="25" as="geometry" />
        </mxCell>
        <mxCell id="O7_YgNS9Y1SkJ02Ty1PF-20" value="" style="endArrow=classic;html=1;rounded=0;exitX=0.5;exitY=0;exitDx=0;exitDy=0;exitPerimeter=0;entryX=0.379;entryY=0.985;entryDx=0;entryDy=0;entryPerimeter=0;" parent="1" target="O7_YgNS9Y1SkJ02Ty1PF-9" edge="1">
          <mxGeometry width="50" height="50" relative="1" as="geometry">
            <mxPoint x="350" y="200" as="sourcePoint" />
            <mxPoint x="670" y="220" as="targetPoint" />
          </mxGeometry>
        </mxCell>
        <mxCell id="O7_YgNS9Y1SkJ02Ty1PF-21" value="" style="endArrow=classic;html=1;rounded=0;entryX=0.5;entryY=1;entryDx=0;entryDy=0;exitX=0.5;exitY=0;exitDx=0;exitDy=0;exitPerimeter=0;" parent="1" target="O7_YgNS9Y1SkJ02Ty1PF-11" edge="1">
          <mxGeometry width="50" height="50" relative="1" as="geometry">
            <mxPoint x="758" y="200" as="sourcePoint" />
            <mxPoint x="670" y="220" as="targetPoint" />
          </mxGeometry>
        </mxCell>
        <mxCell id="O7_YgNS9Y1SkJ02Ty1PF-22" value="" style="shape=image;verticalLabelPosition=bottom;verticalAlign=top;imageAspect=0;image=data:image/png,iVBORw0KGgoAAAANSUhEUgAAAMgAAADICAMAAACahl6sAAABdFBMVEUfHx/T09TxWSoUFBTe3t/Y2NkZGRkbGxsXFxfb29wcHBz6pSH6pyD7qh/6oyL7rB/8sB75niP9tBv4miQlJSX0eSf1gif1hCfzdyg4ODj0fSf3lSW8vL3Pz9DzcyjxXilFRUUTHB7yZyn2jyXzbyhRUVKcnJ15eXr+uhguLi79XCv2iidZWVloaGkSFx//wBT/xRKysrOkpKWJiYo5JiBrNCO4uLn/eiknIh96OCTJTiipRSZVLiIvIyDcUym1SCcRFCBycnKBgYL/dClFKiGoZyJAMx9mUB3snCHVYSiSPyWGPCSVTCQ2JSCtdCCTZSBcOSF9SCOlWiS1YiWMUSOvVSbOcSXlZihLNCDGTShJOh80LB+achzDjR3gnh7akCK4eyDLgiFuVhvNaiVeTBthMiPqhCV7TiKAYxtmRiHDWyfhdSarfhtNNCGgQyZANh5nPCKdVyS9kxfZqRT/0RFbQiCCTSPrvBLbayeMcBh/Xh7ZhSOyj3qYAAAPM0lEQVR4nO2c+0PTyBbHU5I0yYgoWtmttNoIbWlsR/qAFoUCpeID2EVFXhUfu+IDFnV3Xa/r/vN3Hkkzk6QP2L0k3M33J9pOT+czZ+bMmZMEQQgVKlSoUKFChQoVKlSoUKFChQoVKlSoUKH+5dKB3z34Z6QfVXS/+/APCOiPrnz/CJx5pwDhcfXKlerT2hl3ChCejFy58v216sHc2SYBT0auYpBrSwe1szy74MbIVQoyvvT0DIPAo5E2yPjSzBmeXJsMyPjW2ln1CXz7HQuytHpmXbLJgYxv1XR2kwc6kn+d619w+yYHcuPG06nmnNl5oAuV2amZqZrfvewlAIXtu06QGzeu1+dnmgKCqazsDBhIAY8AELY2Nm/e/M4Nct0wBnZmKg8RxQCScdvvrvICAELYnv863L47NnbTG+T6AGYgFIRkNjAuQQxKrfVxd3e5VUM46PXy3dHRbiCsjJWAgKBJdO/Z3vMLF84PDt5/8fLbriB8G72MOPoFmQ8IyL29SxMTE5cuXjh/fvDcucFzw69eDV8ePQZIMBYJfD15a+LSJcRBQIaGhpEQx5kDWfhpcsIJcrkTyPiZB6lWq9e2th4gbeHwa3AgdwKxRmBvkJGrPz9+tN5cm6shrTX3V+7UBxgWY0cIQioJX9/qBoJ29iefWngj1+mhnaRXtdmHdRvFmA8CCdyd6AZyuNHSobubiGV/vo0SiMmlLHcGGXvzpeZBQaWD2R0LJRh74u+u8GuB3G11xMDSwVTdItn3nwTueYOMjr3tedbQ5+5QEqPuf4kFvpv09sgfsPeXgT5Ds8cALBO82j1A3mz3wYGkz9LpFYQc+PktF8jl0T45EEmTkARgf1945wHyvl8ORFKhJFN+u0RpXZpwgAz/2D8H9gleJwFwCXx2y5H9vuq0VeN93WN7nA1GCIbYJZxHdr0cghBqlWazWZkTnDT6ihGMwPVu4iIDMnTXzQH02vrqwdYWTuPrOx+mKvweo8/jZeJ7HRKAvQkG5PKya2jh3MbXpaUl8zyC8/j5fYFphRZ8EJa7AH9hQNwO0YVHX6tV/oRoGLenGBR9xgjA3FJaF9k14lwh+tqT6hX3UdcwdppMz28bA3W/i47wJ2axD71yzHR4dFj1PrMbAzN2JWwfrZKmzy5BM8sGOfeWd4h+1KX4YHywAzVK6n1fJM/Z8LussB/prcMR64oVkrP4YJ8O9SnDeOgvCPzIpCjnnDNr06yiVJcePF2ZmXl45/Z1tvZg3DHbgVrd79UO7zEpyiCfncCN7wjIlerBek0nEpoP6wxK2w36B2PH340E/smmKNwxBLTMctDhJ3sH1PW5lQGmimKuDH3W73QL/sKA3OeWCPz1Jgapfq1wfgJ687ZdRKmvUZJavX6a3XYJwj17ap17wV5MB7U3xCOHa649sjZvk5hLQ5/3EwQsfNxjToiD3FqH7+kVqyN38qXXduzZRU+HoNI8rV67BcGfE+yZffAHts+QXHob+dUzGV5rL3nrwgLwL2jB1m+TXKXxPB+0NolHWp4dJHu5Kd+39OXfMUcnENB6g2u/TzocF/X2MvF9J8QcXUD0ZVLE/tQJZLYN4m/chbXfP9/qCrJNQLY7Drcdg32dW/C3z5NOEG6xU5DDVsfy78O2S/xMFxfefZ50g7Dhl66Rw7mOIPtBWCTw4388QLgNEdQOUdS62tkjTTsJ9hEETSw3yNAQe2DXn+Dwe9Spk2Ct7v9qh68/e4IM3mMWCXyLQTY6VevAXBvEv+SEOsQD5AfHRjIyctjpXkawZieOfh3X4e5nb5Ch++ySINlvR5cwa8Q/kNedQIbecy45xEnjujcJE7V8XCM/ea8RRxUFfiIHq3XPa3CkUmqB+HY4XCAkbpDhYe6MCL+Qo+4GvQcQ5bfMHNKZM8m8fzcFL7z+j3tnx5VGvvwAH+EqSvXr6tGcUFvbP6g3rY/ttU5OV/6d1xc+khzF5ZEhvrKlr/9crX5frY5vPXiwtbRUb5eqcZmUIfHxlkAo/Dk56QYZHm3xlZTal6/VanWJ1LVWmYTlNndPykDFP5+gc+5vt9z3ogy/5J+xALC2vvr04MHB05mKfWVEn+I5/D2UQLj7y8St3pfe6C2y7AUeXJDjQAbqHbPLUxGEy+/2Ll4y76CzLoa+7XkR0c7h2y7xu/SrQNja/ea4PN2LxDmxMMgHv2vYeBUsPLvE3/mw0fUBMXr90wHi/3VdAScjzy/y96LcrXV2CuJwO6Q+6/c1RCL4mgcZG/1rHXrPFaBPOTkMY+Ch//fVUMFnF503nt1d9kLRax8MB8TAzkolMM8qAmHvgusOusfbgGfR9doUH3eNldnZtUA9cglbL86772nc/LItQN2S0FxxbB/GHc+7IXwVXH5xzut22Z8ff/m0ftQ8Wp9aPbhh8Pf9Gj5vg96CLwc97/ut4vt+x8c9riFalfhgCbTue3qEXgy95nVLue+7uafgH4Pdbyl3X54O5uM88JtrsXcFMQYC6Q+8kxwLxBjw/Q6tDoI/HAtkx+/LOx0FXx4LJLgP6x/TIz4ebXvoeGvE95uaOssZtcY2NzuDBOYZMQ/B9yzI6NiGUDv68uSQ7uxVeiegDRLMLYRIWR5qH3VHx1AOj5+s1GuV9U+PNlZXVx8scVMruEsE5SivSK6FUP760T6KAJr4wsrWEnNPo+83MHYTXiTD9/96+eNuzeNEpR9tMUljYDcRolr7MVcv6ZWDJRMkCBWTrmIePPaQLqzQ84hRP9P/kUPATsHPuxmBPIUcT7o+t//hdkCz3uMJBbEgPHcYKlSo/0OBqCqKYlTp3TLIAmI0lsoXCvlUThHPLosi5gqZRESTJE1Olgq5v4UClCiW6sNwiLFsAiFEiGRNSjZy4kltKaIQTxHFT3sfBGI+IZkUJouUyKsn64aayxaTERnbyJ94ME4mRWlomukKLJn+XRZOMjXENHItGQwtETtdjwClLJEf1hKZbKGwWE7IpCdS6QQdUdMRzfSqlD1lh6iEQ9ZK+RiOvqIYS2cwijR9fBAll9DImMiyloyf7mIXC5hDSxYU0ew3UNX0tIQ6Ej2+sSwyJsvlfDqdTp3uxIqm8MLUEnGR/V0xVpbTJ5kZReQQuSCKqqoefxj+lpSSRDkcbwupE0wMJZ6UI1pG9OH4oabxEEZS7tHvY0CBoihcn5F70dpadBlzNeQ/6s94d0VLWu/4AtA2DYQoSsOi5C/6TVHJxeM5QVTRC7yVt0EKtJ3VPwXlPqhhTMUbk2IZoN9Q1Rix4Rw1xcN4d444Dlg9Ar6aL2VKKTG+WM4glQrYqqLGs6VEMpksllNRNVYulTI5hYLIxQxp16D/ckfMLZKG0+W8oCpZbAoZQH+gb4jpMrHR4FeoIprGp8tpRRWw8V4RUFyUPOcC36iBdslCOYLyMA1tmXk0SmIOvcQpjSxLcimuJNA2GjdBUCTHkor4t9VYNokayrihVkyJJWQqreKZgL6BwryEP9KkSIPZfdVcOckYF5FxrVcEVTNoZvWKsySmJs19TisKQBBTCcnOZ6RkflqOJNsgZsMS6poaLzK5jyYX0O/JBAT9kbRs4nSmFLNIsHGZMV4oolc9ughiqAdy0X6NwyYnPHsJCP09NHjIfaK5faNXJNFEFBEGRCaJDvaIGqfA7YYyatgGicj0I9JrKWMubTGddBvvBaLkULiUMqrFkcu7lLJBpGSiWCzmFDWVlMn4TqOVkLRGrw0iZxaxsnnQ3ucTqGGinVy3QXBv0UdFWaYxAvchGiccDuM9QeKIVmpYS0RNS5pDeFwpiBxpxGOYFghFkguUUijoKLlFc4K0QVCPiFQ0cXFDqZiPRdVorJDQnCBysoCCmZDGn9CQA0CJfKeURt+xjfcCIUHLDr5qmsvlrZlugqCoSpxv5jTZKMnzUYSZ1pwgprkUGemMQEISCl8lyemRNP4IfZKQze+JeWK8QfMlZLyoncwjMisWRMqYrQBJQ6RyO2CKcTLTPECwQ6RSe8OLxkivbJD2L4t5DIKnOHAYVwljv2vEAommEpwi1DoB0azUK4rHGc0DO1yKBc0LhBiXk3HVbkhcxHjE6l476NBFxhnPa32AEANa0d6MYoxA3hw0OrUsU+6tB8TwqLlASPaDBpf5PZJHtEGYjdh6SaYtl2gAYVruDUIHhjk4AEZoH0RG8y4QcnxJsYbJWy4QQqxxx13ylheIaoFgS3JKdRrvCUKHt+C1sxNvke7xIKQLyRybMtAd0wXScBGr+Q4esUDwspL5ExnpYm+P4F8mm7WbEf8omXa9QRb/lyCFfkBolNA8XGIGJxISORC6OcT7mFokRuS5aVLoZ2o55m2jLxBqmg0t1gfk0JrIuTxCgzGPXvRa7GKejbD0rUwvEPdUV4paXx4hA68VY46GJLKbwcnhkTT5AnPoEdOe+wjZpLhQGsXvdJ9aOEBzU52G7N4gqBcaSQm4yqIi5slJvkh+iQehwZaZjVEyFh4bolKiLmk/mkRnZTcQ07gd3BVqvA8QsxokJdKqVVpUxFgDb+voBExmHA9iTrpI3iwPiwLpngcITTdwakN/SG1okR4gZoBuG1cBNd4PCBBICiTLmTStaynxxQStdLGr1jalkKxBjmRzpHWqKLmSRssyzS7LcXK1Ip5xJI1eIMglOLDJDdN4SeoraSRCKRCtNMqJTGMxWzaT5zaHE8TKGqREZrHQKFmVRTcIyhrJkUNKZrKFbMlKZLuCYOPmd1jjfYEgkoxV78UHInpuQMc+qz9OEPwGQSWtyRh4g+CQIVt26bTqCYInl9t4fyCCoiwm+Wo8OofYFSIXCFAXZc1uLEtl9qjLRk8UNCS2YaYk9wIRXMb7OOq2eybGzfM+WS2SNl0QmKQ1i7N7fgvENVWzOTpVR6fROBAQ1JDbBsRUyTzL4oZZFLdkjYKgP1gQ5qXTODr2y32C4CpVfLGUiOBTCC7CCGx5RlxMJpIJ3pQYK5SSMnb+NFr0QimJGmCQZCKR5PYzFeTNholyXBTLyFQaWYriP4p29su9VDnjgBjvvwCriNFcHNee44LouMYTyyE5mgMU3dKFQh61RpHSakBaxviGajSXzhfyqRgOwzHrc4dN/iUxTr/DGO9fIIprz+5CJa5eehTIFBRVVXr8bRc+PVsqJPzyDR0VUVeB1Mt4qFChQoUKFSpUqFChQoUKFSpUqFChQoUKFSrUv1j/BcDExpxJvKMwAAAAAElFTkSuQmCC" parent="1" vertex="1">
          <mxGeometry x="920" y="185" width="110" height="110" as="geometry" />
        </mxCell>
        <mxCell id="O7_YgNS9Y1SkJ02Ty1PF-23" value="" style="endArrow=classic;html=1;rounded=0;exitX=1;exitY=0.5;exitDx=0;exitDy=0;entryX=0.5;entryY=0;entryDx=0;entryDy=0;" parent="1" source="O7_YgNS9Y1SkJ02Ty1PF-11" target="O7_YgNS9Y1SkJ02Ty1PF-22" edge="1">
          <mxGeometry width="50" height="50" relative="1" as="geometry">
            <mxPoint x="620" y="270" as="sourcePoint" />
            <mxPoint x="670" y="220" as="targetPoint" />
            <Array as="points">
              <mxPoint x="975" y="81" />
            </Array>
          </mxGeometry>
        </mxCell>
        <mxCell id="O7_YgNS9Y1SkJ02Ty1PF-30" style="edgeStyle=orthogonalEdgeStyle;rounded=0;orthogonalLoop=1;jettySize=auto;html=1;exitX=1;exitY=0.5;exitDx=0;exitDy=0;entryX=0;entryY=0.5;entryDx=0;entryDy=0;entryPerimeter=0;" parent="1" source="O7_YgNS9Y1SkJ02Ty1PF-41" edge="1">
          <mxGeometry relative="1" as="geometry">
            <mxPoint x="180" y="400" as="sourcePoint" />
            <mxPoint x="310" y="398" as="targetPoint" />
          </mxGeometry>
        </mxCell>
        <mxCell id="O7_YgNS9Y1SkJ02Ty1PF-25" value="Data Generator" style="fillColor=none;strokeColor=none;html=1;fontSize=11;fontStyle=0;align=left;fontColor=#596780;fontStyle=1;fontSize=11" parent="1" vertex="1">
          <mxGeometry x="35" y="444" width="110" height="50" as="geometry" />
        </mxCell>
        <mxCell id="O7_YgNS9Y1SkJ02Ty1PF-26" value="&lt;div&gt;Function App - Store raw &lt;br&gt;&lt;/div&gt;&lt;div&gt;data to Yugabyte&lt;/div&gt;" style="fillColor=none;strokeColor=none;html=1;fontSize=11;fontStyle=0;align=left;fontColor=#596780;fontStyle=1;fontSize=11" parent="1" vertex="1">
          <mxGeometry x="360" y="280" width="110" height="40" as="geometry" />
        </mxCell>
        <mxCell id="O7_YgNS9Y1SkJ02Ty1PF-27" value="&lt;div&gt;Function App -&amp;nbsp;&lt;/div&gt;&lt;div&gt;Store processed data&amp;nbsp;&lt;br&gt;&lt;/div&gt;&lt;div&gt;to yugabyte&lt;/div&gt;" style="fillColor=none;strokeColor=none;html=1;fontSize=11;fontStyle=0;align=left;fontColor=#596780;fontStyle=1;fontSize=11" parent="1" vertex="1">
          <mxGeometry x="770" y="290" width="110" height="20" as="geometry" />
        </mxCell>
        <mxCell id="O7_YgNS9Y1SkJ02Ty1PF-28" value="Dashboard" style="fillColor=none;strokeColor=none;html=1;fontSize=11;fontStyle=0;align=left;fontColor=#596780;fontStyle=1;fontSize=11" parent="1" vertex="1">
          <mxGeometry x="940" y="290" width="70" height="40" as="geometry" />
        </mxCell>
        <mxCell id="O7_YgNS9Y1SkJ02Ty1PF-34" value="&lt;div&gt;Azure Stream Analytics&lt;/div&gt;" style="fillColor=none;strokeColor=none;html=1;fontSize=11;fontStyle=0;align=left;fontColor=#596780;fontStyle=1;fontSize=11" parent="1" vertex="1">
          <mxGeometry x="514" y="431" width="90" height="40" as="geometry" />
        </mxCell>
        <mxCell id="O7_YgNS9Y1SkJ02Ty1PF-35" value="Azure Event Hub" style="fillColor=none;strokeColor=none;html=1;fontSize=11;fontStyle=0;align=left;fontColor=#596780;fontStyle=1;fontSize=11" parent="1" vertex="1">
          <mxGeometry x="306" y="431" width="110" height="40" as="geometry" />
        </mxCell>
        <mxCell id="O7_YgNS9Y1SkJ02Ty1PF-36" value="Azure Event Hub&amp;nbsp;" style="fillColor=none;strokeColor=none;html=1;fontSize=11;fontStyle=0;align=left;fontColor=#596780;fontStyle=1;fontSize=11" parent="1" vertex="1">
          <mxGeometry x="713" y="430" width="110" height="40" as="geometry" />
        </mxCell>
        <mxCell id="O7_YgNS9Y1SkJ02Ty1PF-40" value="&lt;div&gt;App Settings&lt;/div&gt;" style="fillColor=none;strokeColor=none;html=1;fontSize=11;fontStyle=0;align=left;fontColor=#596780;fontStyle=1;fontSize=11" parent="1" vertex="1">
          <mxGeometry x="527" y="272" width="110" height="40" as="geometry" />
        </mxCell>
        <mxCell id="O7_YgNS9Y1SkJ02Ty1PF-41" value="" style="shape=image;verticalLabelPosition=bottom;verticalAlign=top;imageAspect=0;image=data:image/png,iVBORw0KGgoAAAANSUhEUgAAANEAAACnCAYAAACPQbkzAAAgAElEQVR4nOy9WXib55XnKTuVdJZOVyVV2WucOIlTTipOXEkcx12VxLZkJ7Zla7Elx5YXWdZirZG4YSP2hSC4S6REcQEBYd9BEACJHSC4SJS8pbrSUzXdVT1P9/TM1cwzfTdXv7n48H4EKWqxJceurrp4H4gUCLzf953/e7b/OWeTLlhGLL2viN5XxOAvycsYKMtr/e9MwQqmYAVzqIo5VKX5s/45LnE9pmDlqmtefy82Wh/0/vShCoZwFUO4isZXoGMqQ7szjcqTQxcs0+5MY00tY5teoDf7FidGk3RMZVA6M9gSi2gDJTr9RXTBMtpACUNYemaGcBV9qHJb9ic+W3y+OVbHHKtjis6j8RVom5zh5PkE7VMZOv1FOv1FNL4Cnb4C+mCZztD7//4bPR9rZB5zqIoxsFbWZVmOztMyPo3SPYs1sYgtuURv5jIDc29hTSxijNRQe/N0uLKovXnUAWn/m5o3cS2BWS9YxkAZc6i6BkCWcO1DB8GtLku4Jl+PuL711/1hgsgcq2MIV9EGSih9eVSeHNpACXOsjj11EUO4ymD2TQ4NhfnZfi3f3X2c4+cSmKLz6MMSgASQjJEa+pAkOKboPOZY/Zb31+kvovbm0fgKGMJVrIlFzEkJvO3ONGpvHmOkhiW+gDFSkwEs9nKr33+j5+NILtMVW8AcqqL3FdF5C+h9RVme2yZnaJucwRJfoCdzmQ5XliPDUQ4MBNhtOMtzxrM8uF/Dj15tY7fhLCpPDlN0fmMQrQePECRHcpnuxBJdsQUs4ZqMaI17DrVr9kMHwa0ua2QeS7gmr/cKpg96f6bovCysQki7ppcxx+roQxUODPh46KCGL21+iU89uI1d+hGsiUWG8u9w7GwctTePLliWH74uWMaWXMIcq2NLLqEPVdAGSu95XwIAPZnLWOMLaAMlNMESlvgC9tRFbMkljOEqPZnL9GYuo3TP8nLXJK92T6H25rEmFtH4Ch84iAYyV3Akl7GEa+h9RbSePDpvAWNAOkCV7lms8QWsiUVe7/Nx/8ttfGHzHv7k4d388d88y+cf/g1fe2IvDx8xcfxcAnOsjsZXWAuiZhNmQ3PNW0DnLWDwlzAFK1jCNWzROl2xBboTSx86CG4HiMRaDyRhBnyYIDJGarImscQX6JpeRu3N83LXJFtO2PjaE3v52H2P8bUnXmNn52l60hclU8lfRBcoNcy+KipPDmtiEV2wTPfMJSzxBbpnLt30Pq4FNH2ogtI9K2sdc6xO1/QyumCZtskZ9vf7+fFeBX/8813cs/MwBwYC9M++iS25xJHh6AcOoqHZt+ibWcEamUfnLaBxz6H15GUQ6YJlHOkV2samefD1Tv70kRf43MPP8dXHX+XuZw5w9zMHeEbZT6e/SF/2Cpb4Akr37MYgEgASak6srtgCtmhdFjLxHoO/JKnHjwAQbmWJa7sWkD4qINIGSrIJtNfh4t5dx9j0vUf55raDfH3r6/zo1Q46/UV6MpexJZc4djZOx1RG9p2U7lm6kktoAyVJeyQWcaRXbnl/Ha4sKk8Ofagig3Svw8X9L7fxmYd28NXHX+Vjf/UEf/7ka+zv99M9c4lOf5G2yRnMsTqdofItmXU3ej5ncu/Qn76MLVpH5y2gds2i9eQx+EtYI/MYwlW6ppd5tcvF3c8c4EubX+KeZ4/wnWePcPczBzgwEEAXLNM1vYzCleXUWBJ9qHJ9EDVrofVrIxPnwwbBe13rT1QZLOG113czQYX3ev3CgTY0hEYfqtDuTGOM1DCEq5ii8/Q2TjshmPpQhf39flSeHJNL/4l2Z5pHj1m4d/dx7nvxFJu++0se3K/h5PkElvgCtuQStpmLmGP1q8xt8XkiUCGCDNdbQ/l3MEXnUXlydPrL6IJVOVBhTSxKQQz3LF3Ty9iSS+zSj/CFzXv47F/v5Lu7j/PxHz/FvbuOsbd7Ckd6hcHc2xjCVZTuWXQ3YUYKLSyWNlBCH6pgjNQwx+poPXnZKjIGyui8Bfkg1HkL2OOL2OOLsltijy9iCpZQTKY5dS7Os9oR7t11jJ/t17JNNcQ9Ow/zxS0vsV092AD3xvfomiASJpsAUjOgNgKQwf/ebemP2tro+gSAbiZCd6vfb2n4E0JjaMMV2iZnUE1l6clcRhsoMTD3FvpQhaMjMXoyl/nFUROb7n2UO+//NT/Y08IL5vNofAVZUwknXuHKXnVorAdS8/+v1wj6xuvRkQhHR2IYI3W6Zy6hCZZQeQqYovMo3bOovXl60itofCUeOqjhC5v38LUn9vLVX7/KXzx3lF36EbQByV/S+AqoprIyEG+0ZNO0ae8CWGpvHnOoSvt4ipbRBHpfke7EErZoHXOoijUyT9/MCgOZKwxkVhjMvoktWufIQIgtx6zcu/0wR4ajHB2JYYrOY09dpN2ZRuHKYksuYYrOX9OMvenAwkarGUACRO/HMf2orBtd3wdtzhkjNVkghECK8HDHxAztzjSd/iJD+XewJZf45raDPKcb5tjZOI8cNnPsbFx26LWBEkr3rCxsCvesbAquB5FYN9rf8XMx2ZRUOqXwuim6IAOiJ3OZrulluqYvcXQkxo9e7eALm/dw11P7+Oa2gxw+E0HlyWEIV+VrFJ+tcGVvCkQidC40tjh0OqYycuRNPDuhYQz+EsP5d2Wt1DY2zTOKPu7bdYIHXu7ggMPL0OxbHDsbRx+qYEtK/r0hXKUvewV76iInzyeuua/3FOK+lgZqBtE/57VhBM7XuB++2weiawmsxldAeWFOztuoPDk5wqWakk7Eofw7HBmOcs/Ow5w8n0DpnsUQrsrBAeHjqDw5VI3PMkZqsgCuB1IzmK63N12wTF/2CtpAidaJFGpvXt6nIVzFllzCnrqILljmvhdP8Y2n93NiNMn+oSBPtjkwhqucLryLIVyl3ZmWtaU2UJL3djP3bb0JKvagD1VQOjOYghWskXnZcrLHFzH4S7SMJni928Vjx23c/5tTbD5q4dS5OAOZK/TNrEg+kjcvm9UnRpNofJK5qHBlUTozdIY21phrQHSjZOu1wCP+Thf856+JjAHJdNno+uRDxf/BaCKhMUzReWzTC7ROpDh5PiGDxxqT/Iwf71VwaizJidEkjvQKSlcOlSeHLbkkO/SS3yJF8SzxBfnZCF9iIzDdaHVMZTBH5+maXkYfqqD25tEGSqg9OVpGE/z4NSX3v9xG2+QMrkv/hC4oJYB7M5cxx+ry3oQ20wXLKN0ZtIHSTUUHhWkqzDjhD3VNL+NIr8jmuHheIgq3xzDGj15s4+E3jLxkOo/alaFn+qIMMNVUVjYrrYlFGZTdM5fQhyST+nr72hBE68F0LQCtf/+HDYJbXTe6vtsJoo0y80r3rJyzUU1lJRNlehlrfIGjIzEe3K9h80krnf6ibHYcPhPBGKnJ2kbtzctL+ESW+AKGcHWNU94MpvVAvhbAu2cuofUXaRmN0e5MY09dxD69zB7rON9u+BTmWB1tQHLWu2cuYUsuyWZox1RG/k6lexaNr9Aw/5Zvypw0RedlM65ZK5ljdSnc7MxgjczTnVjit8NxfnFQz3e2v8GvTtpQOjM4kss4kstYI/N0urK0jCZoG5uW/acTo0ks8QXMsTpKn5RT0/gKtE6krmturgGRyANdTyNtqIHE392GrPOHDaKNrq/TV5CTckJT6YO3H0QdUxnsKSma1jGVQRcsY00t88ZIlEePWXhG2Y+lkQw0NvyKvuwVFO5ZlM6M7Hg3R7F0wfIaqpB4z/vRSNqwZOqIBO7+fj9/8dxRfnagE7U3T8tESqbLiM/XBctrKDLCh2l3pmUNZEsu3VSyXuOTZExoNUsj2dkyPs3RkQiO5DI7NUPcs+0QP31FwRt9gUbaooralZHNPGOgTFdsgd7UJXqmL8r+k8I9KyefBcgFYK93jzYE0bWAdD0A6by3nnH+Q61rgV1cl8FXQeeRBFHjKaLyF1BfkK5PH1gNc64H0q3uq2t6uSHoJfqzb2OO1Xla0cdDB7Xs6/VKETBnRnauBevAHKujaQQhzLG67GuoPLk1wiBA9H6BpPEVGMy9TcdUhp++ruaHL7Vy+EyE3sxl2WR8rcfLsbNxrGHpZ3NkAUd6BfWFAobYPEa/5KOZIwuovXlOnU+hdM9iT4k81bVD7a2TM2gDJbqml2Xfr21yhr0OF89pz/CdbQd4tvO0HOo2BSuSvPoq6LyFqxLnQn5FJLpZw1kTizLAhaa/ORB9yOtmcjG34tivj0IJ4en0SweCKVDDEqhjDS9iji1ijizQGayh9Jfo8BZQh6toQtLSBavo/I1AhL+KKVBr7OHaQqDy5Dh+LrYq1F6J/6ZwZSVzLFhCHy5hT13EGKmxs/M0jxw188bpMPpQ7boHwM0eHs0hYZUnh8Kbk80/ERywJS/KYFT6pCiaqeF7bDll4y+eO8pvTKNYE4uYovO0Tc40Im1VdMFa4/W9L6UvLwdC1N48HVMZOYAhKDaCBdExlWG7+jQ/erWDX7xh4Dem0VuWv+vJR6e/iNI9K/MVBedQGyj9K4hkZrOnhN5bxuSvYvRX0YdqaEPzdIZrqMNVOkJlFKF5GUjqYJXOUBWDp4bRW8Xonb/uHrSBEqfGkvSkV1C6Z+WkpBAaYXP3ZC5zdCTG954/wTbVgEwtMUZq6EJFab3P+6u8MCdz1IyRGsb4KsNaF5FO4Y6pDLpQEVN0Xg5MGMLzvNbv495dx9imGkA1laU3c5meRsBAH6pguAXwiCUY3c0EVkt8gU5/kXZnmsHc2+x1uPjhS618d/dxHm+1c2Q4iik6T//sm38QEGl8BTmkLkD9ryBqApHBV8HgLaPzlBomTxlNqIo2VkcXX0AdrspLPHijt4rJW8Xkq63Zw0Yao3vmEq0TKdnZP3k+IVNv7KmLWOIL7Dac5XvPn+DQQBBrfIHWiaRkp8dvnSUvKPy6oOSkCydamDEKV5au6WU6/UUUrizmWJ0jw2E2H7fy8BGTTHNpTt72Zi5jidU5fCb6vsEjadmqzMwQ+xGsC22gxPFzMe7dfZwtJ7o4fCaCPbXCUP4dLPEFFK4sLePXzuO8HxAJrd0MIkd6RTbvVP4CSvcsHVOZfwVRszlniyxiDtYx+qtoAxW0gQqdwRq6aB19YnHVnAtIZktnsCaZcV5Je91oDyJ5aghXOTGapCu5hCO9wrGzcWzJJfZYx/np62paJ1Jylnww9zYab/6mkpEbXW/zz8IXavaNVJ6c7DvpglW5dMIYqfFkm4Ofvq5mb/cU7c60nI8SoWZjpNaos6k3wHlrmqgnvcKxs1FaxhMM5t5GGyjxizcMfOfZI2w5YaNlfFrWAM0JaUt8gYG5t24riNbLh9DKKn9BNjFVF+Y4fi7xryCScyf+Io7EJeyxi9gii5jCdXSRebSRVZNOHaygDlbW+EQGX0UC0A1ApA9KTGbhDJ8p/g5rYpF2pxQKvv/lNh4+YpJpPcJHEREsER6+pfvbcI41voJsUgrNZIzU0AVKnCn+jn29F7h31zGeVvSh8RWwJZekKKBLClULv0SYfPpQRWJr+yu3tBSuLPbURY4MR/nOs0f41vZD7Ov1ykxwETjRhyryIWCM1LAll94TC/1m5UPIiADRidG4vIe2yRmMkTrDpb/9Fwqi0GpiuBlEBl8Fc3Aea3gBW2QRS1Q6ZTtDVZTB8lVBBYNvFUQG37XzK+LflvgCp8aSTC79Jyl65pfCs3dv389eh0sGlTm5iNqbl06/WF1Oqt7y/W3kWMS164Jl2WkXQYIH9ql44HWNHMoWQQele5bThXfpSa+g9uY5MZqkbXJG/ry2yZn3BBitr3zV70ZKv8cSX0LhyqJoMMI7pjKoLsyhDZQ4OhJBFyzTk17BEqvTMTFDy/i0HLG73SBar4lsySU58dqXvcIbp8N8d/fxf6Eg2uAmaQMljp0O0TKaQOvJS6XEyUU5AiNIoc2rOelqCt44amaM1+nNXObw2Ri96TfZ63DxzW0HOXY2TrszjWVa0jxSodoyLePTqDw5hkt/y7Gz8dtzjxuVpZb4ghxIODoSY3+/n8/+9U729Xqxpy5KkSh/Tg5+tDvTHD+XQB8sy78TjAVdUDJVb/X5af1Fma7U6S/KfptIJAt/SeMryORQXbAsl1PcbhA159yErChcWbapBvjW9kM8dFCLwpX9VxBpAyU5Efii4Rz7uz20nk9iDJRlFrAuUJKTgeJ7BHCagXTd7w5KJEvx/U+197DllGTntztTEsnUOSs/MI2vgCkh5VKOn0vc0kkrvlMIpihVUHly7Ou9wJNtvTy4X0Nf9orsH1niC2vMNZFAFc60MAMlwZZ8qFt9fsIXE+FjARaReBZ+iSCINu/hdlTGymTccAldqHiVJvr2zsP85DUlL1jOoQuu5vU+MiDShyRyq2AG2OOL2KJ1NO452sdTKJ0S38kWrcvvW1/e+35BJG6SPb7Ibv0Im49asEbmUU1lMfmlvSjGMxzq9WP0lei8kMMcqmKLSoJjSyyimEzLnyuoL+3ONB0NKv2psSSnC++yv9/PA6+rebKtVyI2ujOcGktiTS3LwYzmPTUHAW50fYJNrfbmpVM8VpfZASpPjq7UIh1TM2h8BU6NJXn0mIUH92vY3++X93wzz0q8Tx+qrGFeiAS8xj2HPb7I2eLfophMY/CX0Ljn0LjnMAZWy2zMoSpKZwa1M0tv8qJUlPchyqApOo/ClcUQnmco/w4aX4HHWrr4/gsneWCfakPa1FWNSj7spXHPoXRm0HkLcnGVyC5bI/PY44tybwedt0DnhZyUJG2Uqt8siMSDXw8ia6iGYjLNK5ZxvrL5Jc7mf0dP4hLt51LYw3VM3hKK82ls4Xl6EsucOhfn6GAYc6hKb+qSnNcQJ7kjvYIhVGGPdZypi//ITv1ZfnnYyCt2p3TKh8qYk4v0z76J0j1LZ2h1TxsB6UaJ1mZWtQgiCO3Tm7lMy/g0jvQKT7Y5+OKWl3itx81g7m10keot5Z/EsscXaT2fRDWVZTD7Jhcu/pNc29MVW8AamUfrydM+nkLjnpOrhk3BCvb44h9U1sRB0HxwKFxZiV3hzfNYSxd/9Uo7u/Tn0PgKkn8YKK5he4j1kQCREA57fBFrZJ6u2AI90xfpTizJZeiisMocqq6WXjRRNm6mZVdzIdd6EKkDRVrGE5giFZTOGV7vdvLxH/4KS7jCQGIJsycvL60rjWJ8Bku4Rm9qGUOkTFdqUa5v0YcqnBpLyty1yfo/8LMDnWw5ZePAQEDWKsKh14cqTYVp1atA1MyDu5FgNHO9OkPlBuu51mBLJPjzJ1/j8VY7Z4q/k6tU+7JX0Piv9vne8/LmsIYqWIJlTmev0BWpYfQV6Ekscmb2TUz+ImpXBt2FOSzBMpZgGZO/iCVYxhr58FuutU6k5Ohby/g0x88l0IZrcp1Us8w0r48EiMRq7tsgtI1qKiuRAxtmwfolfJP3AqL1gieEtGU8QWcgT+eFWcyBEge6p7jj89/nVG+AgXgd49QsPaEajmCVnsQi1lAFnSeLNVnHPrN0Ve5CJC9/8pqSx1q6aJuckWtyDg0F5OSisPnX72s9mMTvr3V94n0i9yPIqsfOxnlG2c99L57CmpDKBg4NhSXtm5RMPlELdDNro3toDJTpjtewhiocH/RzvvS3dMfqxN757/SnLmL0FRhMr2ALVzH6Chi8eXQX5tB7cjKgbsav/SBXc61Tf/oy/bNvygRXQffRBD/iIGrWKsZAueF31LHHF+mKLcjdWQQxdn0PiPcKoqsy0pklDg0HMIeKWAJ5lOMJXtae5o6vP8SpPg/+6n+kPzGPaizGyNwVrOEiR4f8WONVTo7HG0nSi/SkV+iaXsYYqXH3MwfkHmX21EUZMMZIjdaJFIZwld7MZU6NT18T5DdLEF0PIlEiIEDkSF+hZXwa9ZS0FxHVElwwXfDmfJK1e5Tuu8lfxugr0DISwujPMfe//T+Mld6lOzGPzpPlXP4tPEv/wMjcFQy+ORRjcVQTSfTeWUyBPAav1DDkD10JsF4ejI2Qvz5UocOVlaN+18tDfaRAJFpwib5gel9xze8Uk2lUU1mJZR4sy00jhV39XkC0Ea3Dmqxhn66jcKXodKfpOB+jJ1qhbdDPnXf9lFfUgzjz76CbTNF2LsJI7m1MwQK/HYtwfCyGPiolDE3Refb1ern7mQNSyDxQkgmUKk9OJnOaovPyfpqbkVwL7OLf17q+9eacAKuokhVdUM0xqT+CPbUiF8odO5u4aRA1g0fs0xgoo56apu1chNg7/42p+d9jj1U52OOkL7VIYOUfMYeKjJXeZaz0Lj3JOrZIGa0rTftoFL0nhzHw4dakGZrqr9ZHCv/ZsLiVzgwa9xwdEzMcHQxzuD/IiTMxfjuc4OhgmNbzSSkK5i3IZcDNrWHfC4iahVNOpk3X6EkvoXTPoJhIMJJZwR4qoj2fYMs+NXd8/vscsU1wfu5NNBMJbJESBn+Ovf1O+ufewpKQOok+rezhgX0qORwsOoyqXbP0z76JISx122zmhdmSS1eVO68HyA2FYF1gQfhapug8PZnLqKayDGSuYEsuXUWf6ZpeluqkbloTSCDqDBUl3ytQpn9mEb13lsnqf0AxFkfnzjCYuciFxb9H585wdMjLWOldXPX/yMjcFUYLb2MOFjh5JtAAkVSz9EHL2bXuZf/sm6g8OY4MRzk1lpSZ7qqprFzkuNH6SIBITti5ZuUQadtoitbzSfQeKZxs9El18orxDFpPHotfApEtPI81tOpL3QqITLES3akF+rIrGPwl1JMz9MVrmL2znI7X+dlzR9j0ya9zwjHFWOEKLacD2GMldJ4Z1K4ZLOEKJ87EUE5I2X6tr4w1toQpXMccWcAUXUAxNScL76mxJMZohb7sCrpQccO+Ae/lPsoddBodTs3rQtzGSI22yRk6pjJX3Yd2Z7oBivf+/DpDZTpDVYkEemEOZ/33TC38R+kgyr9Jd7yGYiyONVzifPEdjK4MHWcjuGu/x137PYapNGbPHCZf4ao+F6IA8nbK27Xuq8qTw9i4/81+pT11cU3ZeHNVrSFcZdNaEuCHAyBxktmjCxguFDD5y+yzOWkbTXE6/SZtoymUYxkO9vjlELM9XMfgLaIaT6N2Ztc0ErlWy1/RqM8SlvJMvx2O052QqiqlXtSr90EflOx8k7+I0Z/D6s9h92T5q2f2sunTd2F1J7C44vSHs5xJ5LG4E5xOLWMNVDF4i+j8FTr9ZTom86g9NUyR5QZxtUFeDZXRB4sY/DmMwRwGf47+9CU5Fyb2K/IrIsdyK8nmGwmRWBpvXi7ptiYWJS3aSGy2TqQkalLD3+qYysgmrMxni5akaGWkTNtYgo7xOEZ/jtTf/V+M5q5gcmcwTs6QWPknlKdDWF3Sz/ZgiaHMZXSeDFr3LB0TM+guzNGXuoLBV5Hzgp3eEhpPEY2vhMZXkmhDwapM2jU0hFywM6yJRbl5i+hbLq5JNNg/fi7B/n4/LePTchhbMMmNkRrKC3PXvF8fOojEMgYkodVOSSfS0YEQFn+F0OX/xrnc73BW/56Djgt0jM5g8VewBWvo3Xk0k1l0rhxm300wGhoVu9bIPGrXLG1j09iidSnXFG4CUYPLZfCXJCAFJBANJedRjvi4+9Ed3HnX97FPxeh2xTkXm8M0EaIvXsPqK6J352VencpVQh2cx5S4giZURxMS31OWtI8/hykgrYHMCn0zK9jji3Iov7nC+Eb9wN+PBmn+ud2ZltsTC5KqpSF0QiAH5t5iKP8OXanF1YkOIlmdWaEtkOfo+SRtzizGaInuxAKWcAmjP8fw7ArHeqZ4o3uC+f/8P7C5s4wk60xkLuGv/Z7hzEV07gyOxDwaZwpbuEp/6iJv9AU4Pfsuisk05lCV7ukVuqdXMEUXZCBpA1JDEYU3J1s2ovhQRDYd6RVesk3wvedP8IXNe/jjnz/HJ3/yNJ96cBuff/h5/uQXu9hyyoLKk8ORXpHA455tJMVnN7xnHzkQWUMSMDqds5ImOptiMHUZo6eII7rIG71+2s+lMHqKWANVjJ4iOlcOo6eILVi7oZCJ090SrtExMUPnhZxM3TEFmorKGgRJY6C4FkTxKsPTNU72jnHHp7/CT7e/zHB0DsNYgG7fDN3hEkZvHu3UnExM7fRU6QwvYExckkEkl5hfA0TdiaU1/QCaI5bX68B0W55DUym0yHkJ30q0/RW940SeqWV8mlPjMzypHGCPw8mxsWmpXCBSpCs2T1esiiUohcDtwRIXan/H+cwKHYMBZq78F7Jv/1eOdk0wWX4X5XgC9eQ0XdEKnuV/QjGewRKuyXlBoYn0gSrm2BLWxDKW+BKm6IKsiXTBsqwVmyNuR0di/NWrHXzmoR18afNLfHPbQb60+SW+sHkP397xBkeGo3K5ij4k9ZMQLckE1eifhSYS2uVQjw/1RIbh7Nv0Jy8xVvw7jg2GUZxPo3fnMfvKmLwljJ4iZl+Z7sjCDQFkCddQu2YxBSu0nk/K9CFbeF56SA2zQB9YLf0WILJ4cxi8aazeLEPxMnuUdjZ95is8daCFHk+C4WQZh7+A1VfE4i1g8kqVsupAGW2gIgNIE6heE0S9qeU1AFqfC7td5ty1loggCsayITZP60RKZkofHgrLvtxjLV18c9tBvvLYK3xxy0v823+/g+/sPsYu63kMiTqO9Ar6cAmNP4fBX8DkL2INl1COxjg9s0TH6SDpd/8rnvK7jGcvMTH3Jj2ReczBAkcHfMz+w/+N7sIcqskMfTMrKCbTq30PQ3Us0UW6pi9JfqY7z7HR6Qbre0ZOI3RNL2NNLKJ0z3JkOMpPXlNy11P7+OKWl/j61tf5+tbX+faON9ilH6Eve0XSsNPLMglYmHMCVB9JEDVvTB8s0x1bxBaeRzGe4VWLk9e7pjjcH2SvZYJDvQHJN5rIovcUMPoappa/jCVYxRaev6GQCS6exv9HP60AACAASURBVD1H29g01vACWk9eNunWU/NXQZTH4s1h9mawB3I4ArMMJfI8+Nx+7rjjMyiGXAzFCjgCOeyhIvZgBUsDRJ3+MipPgQ5XDk2g2uQXXQ0ia6Qqm3HCHxJ+wAfRgXW9aaJwrfZec6RXpECFPyfXC5ljdR7cr+ETP3mGrzz2Cve/3Ma3th/iq4+/Kk15GInSGa7Rk3kTa2J5NcweKKJ1z3I6cxlHuIL6fJzT8TrxlX+iJ5hnn+4Mtf/8P2gbDqF1ZQld+S+MzF1B78mhGJ+Rn5GcyvCUUF8Q9UR1umcu0zf7Dkr3LI70CqcL72KKzstFjvfuOsa9u4+j9hb5xRsGPvXgNr76+KtsVw/K7bBOnk/IvfqaCbvCF9xofpN430dGE+mDZfSehlbwFlFOZLEEq/QklnHElxieewfdhTxadw69p4DBW1wDJHPgxid1V2wBnbdA66hEaBXTAUSTvzX1Ls2f5ytg9OfoDpewBwrYAzks7mlGUvP8yf2/5GPfuJ9TfeNYXRkc/gL2UBGrT9qfwVdB4ynSPjWHOtgMIomvZgysAskYWCVwioaCatfsmmFUH6Qmam473BnI0z1zifPzv2cw9zYKV5ZjZ+N8/4WTfO6Xu7nvxVPcu+sYf/zzXTx0UEtv5hJd05ewpC5hji02Dg9JKA3+AlrPHIdPe9F5sijORTG5s9gCefyLf8/5uRXSf/t/cnLIy9T87xkv/46TI0ECl/93Ol1Z9L6iTPtSu2ZpHU/T6S3hSF+hf+5drIllFG5JczxvPMd3dx/nm9sPseWEjcNnImiCEtNc1CiJ0HWnv7jGfLWnLtLVZBK2O9O0TqTkEv6PpCa6ankLdCeWMAWlSIzRX5VZ3HKNT5PD3dy+S3chf0OfwR5fxBgoc2woIrdQEmZeM4jkv2lUqwoQGXxzGFwZuoN5OscTjOUu03k+xKY7/oQfbn0F1XAA4+QMXZ45zN5ZzIEK9uiC1DXIW2LtvV4FkS4gRedMwZI8fEpoTMFS/0OMdjHH6nKTRYnNLOWbTowm2W0e5VvbD3Hfnha+8fR+PvGTrXx96+vsdbjkmqs2Z7YhzPOYogvoA1WUrhxq1ywGb5G+6WVM/iJmfxGLN0dPpIrFN8fp1CX0U2nMgRL5f/p/eUE3hP/Sf2a0+DuJPtSY8mAMNJjigSrWmNTt9dR4mqdVp/nBSx3cs/MwTyv6UE1lZU2qC0jdVnsyl2mdSMlNUERqQxQlipqljglpWp4+JLXNEnVTKk/umqH2DwVE10p2qV2zcg2PLVqnZ/qiNHqkIfDN4V/RM0zrl4RO7Zq9oZAJVvjBHt/GA8zWg6hZE/kKqCaSWEJFFOeiGF0ZNBMJTM4ZHn29gzs+9eecdIzTeTaA2TmDxZWhK1CkP3WRvpmLmCMLV4FI1K0YGn6DOVRec21C+wjWxgcBomY2hClSk5kTtuQSh4ZCPLhfxV+90s7Tij6ZmPlaj5v9/QGUjWaHxkiN9sks5tgi2oB06vdk3qQ3/SaGoOSHatxzHB0K0h1bxBouYo9VsYZL6KfS9E4vYPTniL/7f6AcjXEu/xaBlX9kqv736C7M4bn0X+QJd8ZAmaMjcR471cu3dx7j3t0n2aYZps2ZlQdviWihITYvV+yuJ/JaE4tyxyJ9qELrRIrB3Ntybk28T4zPvAFj4cPRRBuhWvggNxKW97uEhjsyEJJD3aqpLN2JpbXTMJr2oA+ugqgrUsMcLGANl+iP19FfyDCQrKMZT/LJ+x7mT+9/GNtkDN1oCNNkit5YGXuwQuu5RCOYsNrZptkvMgbyGAPFxrq561j/sylYoc2ZlvshmBqJVWGiCUFSe/N0BvIyNah9KiMX2dlTF2kfT7FV1c8PX2rloYNaXutxY4zU6MteucEzla5JG66tXmvjVYT7RSBH6ZxBMT6D2pmVkunBPOZgAUuoiD1Wof7f/z/Uk9N0x+o45/9XLOEaLWfjPPSahp/tVfHLwyae149yciIj9QdsgPeDltn1zS5F8eRHypy7FYBs1NZ3I+HrmJjh5NnYatdLf4mu2ML1HfcGiAzevPTQAyW6Y3Xax2JoXVnssQrPK3rZ9NW/5IePP0e/L4PDl8UwkaJzYhqDNy8FCPyVG4CoyYR8P/cgVKF9KiPNNGqEoXWRqtwIUbS8MkXnUXglOosuKPlCh4ZC/GBPCz/eq+A53bDsB4iqUXOsfn3mgF8IcRVtYJ3ZKvxMT75BIM5j8DfMVF8ZU7CAJSTRf9ST0zhrf8dY6V1ODkc5OhDgezuP8rO9KlpGE2jcc5gjC1hjSxgjdfShWiO8ffMs9JtZ17KWBFNB5tNFPiTGwq2MWb/e59wMiE6ciaGaymIMrOaMRB7iRn8vchWmoOTrKCZTdIyl6U0t0xeb5y8fe4477vgs+zXdnAnn0Y8lMHtn6WrM85EDF+vvd6Mp462CyJZcQuMroBAj4hsZebU3T9f0MsOlv0UdKDba9kpZ+1fsTn552MhPX1dz+ExE6sYar8s9GITg6G5U7yOuyze/utaZr+2TWQzBGo70ilR6ESqicWfRBQrY43UciXleNo3w7/cqOD4UQOue5cLyP6B0ZtD7inIwqDf9Jl2Ji6i9RU6Np+lw5TCEb336+Y2WyEM1d0tqlEJ8dDTRra4bntS+Iof7g3KoVDWVlYMNqyAqXlOrWSPz8ntFeYbBX8IcquIIV1AOTvDxL3+HL/7l3+BwJ3D4slh8c+jcGamOJlC+MYhuYdkaU7gFvcWRXsHeKMnQBVdntbaMT/OzA53c/cwBHmvpRuGSJvGZGxWw9tRF2iezHD+XkBu0iNdr5ktuAkTmyAIqtwRsbbiCIyMB6XnLOX7yWgd3/WoPjx7s5PhQQAriePMcHwrIc4c6L+TQevJSkMYviLZ1ed0uObrWNYqCPVN0Xg5OqL35f1kgUk7Ocvx0VG52rnbNSmXJjTyMwS+ZbMJ8u5Y2E4wGW3wZW3wZjaeIzjlDn2+aXYdauePjn+OFU1qGk2UUw350zhkG0ssSiILlG4Do/flFxkBZ5oiJQj+hhcTJ+bzxXKMllppDQyEcjbonbaAka5pTY0laxqcxRmoy3ccQrl6jaK/pGvyVBniW0PsX0fkW1oGpTPfMZbqmL9EylWVb5xm+/2ILf7nrOFvaHLxxOkhfah5HYp7e6QVUE0kc8QXaz0/Tm7qE1pPHkbiEKVhB6cqh8RSxxJca+SsppP5By5cYwiZaejW1Eb69ILoZU+12mXPXB1Lxqn+fOBOTTQKheUTdvzQNTwplCxCtF1TVlJSzMIbmaR3PoJiawxKrYwzNY4uUMQ5fwH52ijv/7Bt84hv3Yfem0I5F6YlW0LpnWa2X+WA0kTgdhakhggnbtcN8c9tBtqkGaJucwZ66KNcYmaLz6KM1WsanOV14F3Oj0lVE6QTR1JpYvr6MyCBakJfWW2uASPIDH3hdy4MHtDx6oouXu6ZQ+PPYMys4Zq/QnV7GFMhh8M2i82SxRcqYAyUU4zPyfRcNTzqcs7RPSuF0ja8ktXv23f7hcus1kqLRi9sYqWFJzMtznz5S0bnr/f5mgXk9ITvg8Mommd5XlCeladxzqyBqXs0+ir9Kp7eEyp3HHFmgfTLLybEZzLFFLPElKUw77OGsN8Yvd7zMpk2fZtvBDvqCORyRMp0T0xuASAQX8rcFRApXVp7X+hvTKD98qZUfvtTKHuu4TOkX3Dd5FmwjOifmwhqjEvtZtKoShYMnRpPvGUQ63zx6fx1dQFrHz6doc86iCpQxxBcxJhfQxWoog0U6XHMY/Tk0zhTqyWnssSoGTw5buIraNUvP9MU13Dn1hYIMIlN0oWk0ywe3RLDGnrqIPXURja/Avl7vrYNICK/wI0R4WDAJxDIGVgGiCa/929sFxhsJ2avWCfrTl+WH0TezIic2xZ7NvrV7Nvgq8mv39IqsfTq9JdRTeayJi+iCVcyBCrbJBKORHPoBJ3d87hv8m6/cw5AnhnHUz9isdNLqglInVdEYXxkpowvlMAZuHUjHzkZ55KiRb+94g0dOWFG4svQ2cietEyk55K10z9LeCGuLuiNdcLWoT8x/bR52tabv3UaRqw18Iins3JQXC9Xk6KTGV6LDl0Phz6MJlzFGpKYvek8OW0TSQBp3Gnu83qhwrkhdacM1Or0llK4cbc6sxARplJ7or7W39ypT62qtxL8N4SqHhgJsPtnFd3cf53vPn2DLKRubmoXwZsLE1zQlfNKEBKu3isUjvdobr9aGYJpjdTqjVTpCRTp8Odo9eTr9ZQzBGraI1NvN4M3TFanT6ZqjK7qEyp1HfaEgP5DO5l4Koby0AjlZAAVNpjd1Cb2vyEDmChr3HHttk1eNj2wuMxDDvdYv0SJY9Ns2BWpYQnWs4QXMwXkMvgpqbxGVM0dX+CLqkRn6XNM8unUXX/jil9m77zWcwQD2cTdWfwZNsEJrdJnfRi/SGquhiJbRRDLoQxnpOjZ4kGKJjqC6YBl1oCjNEpq5yIuWMe56ah/3/+YUz2qG0Xry9Kcv0xVbQO2SpuhpPTfuUHrbTu0btRG+wd8372mjojzx8/o+dRvJb7NJ3jy4W/QtFC0IuhNrI2/6xv1ud6Z53niOnx3U8rUn9vKTVzrYbTgr5+RsyaV1M1vfJ4j0wcaJ7Z3H5JnHekECkFjWRq2PJlxGGSnTEa7QESmhClWkMSV+SUi7Y3Vs/hIaZ5r2cxLVR++tYAzNYwzNow+I00x0qcyhC+TQBqVXtSsj92ewhGty+Xh3YokXDeeuCSJ5YtoGoGlepoA0BcIUrMjT9DSuAipnDsVEDr1nme7gMuPRKmq9mc9+7E7u+twnsZq0jPn9dPum0YSqtEYvcSx2idZYHUWkii48gzmUxnCdtlXCh+nNXuH03NscHYnx0CEd9714iu3qQYm278xI9TYNZkb7eIpT5+KoXbM3zoXdThB9SOtG8isisYLYK+6VaBQq+im0TqR4RtnPd549wrd3vMETrT1yF1pbcklmdgve3RoQvV8tZPKXGw3dJbUtRo1YvVWMvgpmX1mit0xXUScqtMXK/DZYoMOfRxloJN0CFXTuDD2RKqczlxhMr8jJ0PVJSvmUDuQaWkjinrWPJ3Ekl+WTRlStDmbf5De6kWuOzjT4Jca1wVeRRqVsAKDmJWmpBrAikhbtjq6gHJmlz1Wl77Qf76SPB+79Jl+6cxPD3VYmJt30u5OY/GUUwSVaw5foCC1IpkwogzUwI4PoWok+e+oivzGN8pPXlDx6zMJrPW65nZMuKNGiRL8+U7Ai8+9Mwcoa/tn/rCC6obXU8H9FOYwA1dHBMM/rR7ln52Hu29PC5pNdvN7nk++5qIIVABL1VaJ/4KZmv+RW7HFdsGHr+yVhXxW2RjebUImOUJ62eJH2RAl1ooIxuUBXqk5vconTqWUGknXsoTw65ww6TxaDN89AZkV24q7y3RrETVFeLYbbCvNMsH7NoSr7He7rguha2mcjAOk8JTrdZQl4wRrW8AI94SXsExXOuiv09zjJJ2YZUqnY9uMfcjk3i2t8ijPOJN2eIjrfAurgJTTBRQy+ClZvFqs/I/tM11rHz8V4tXuKlx1TEnj8BYks6s1hSy6hmEyjmZLMWcG364otyJyz9ebN/wwgei/yq3bNyn08rJF5rHHJ3H2928X2jj6ZBiXmIOmCZTmwIkoimqdoCF7eLWmi9QEDZaSKIlJFFVrrUGrCZTSRCif8GU5FcrTFi6iTRbSxAibfHHrnDPrzSVRn/XR5UzgiRSy+LAbfrFRjE6ujDVeaRpuUpc9uApHZn8MSrsjZbQEmc6jKG/0+KfJ0vetpAv21/CJ9Y4qe1l1APZVD5ZxDOTmLyjmHbmKOwfEC4+OzeM+FyLrDZM+P8/i3v0klEsZ/zsm5iQT9rjms3ioG7xJGfw2jr4LNl8PulULr1xMY0S9bMJHFqahuDAET3DRB+BTUJlFeIU7j/5lAdD353ejAEH7R+v8zByoyz9CWXFrTmdbQCPULc070nRBJ1/cNIsn+XI0m6UMV2d9Rh6t0hlfNL024jDpcRhkpoowUUUdydEbzWMNFesJFRiJVRmNVuiYjDCfynI7naD1zAYsvi94zgz4slSkLEEnmThVdKI/RLwHIFMhhj9fl3s+2aF2m9bxoOLemlOB6gnQtIBl8FZSTs3S6Jd/JEqpjiyxKEaNQnR5/jcHzWUYGQvhHQwSHxilOXuCxb91Nf0cHcXeYsYkIg1NZ7O4qVm9N8h+9VbrdOeyNJO/1hETRKFUWDrAY+Sgy6evLygVDXQDpX7o5J+6J0MzCH7aGahIDpRGBbHemaRmflu9v8zhOhStLR6MuSTbnbkUTrX8A6kbgQB1eDWML+14TLqMJS0lFU7yAPVZhIFpkJFBg1DfH+QszDPuTHNZauO+xHXz8nh/RNuxhcGaZgbkrDZ5S5bqVoZawROURJpqg9uyzT111Cm20bnSNouedOTqPI7mMI7ksJ2t1YykGzqbwjqWIOmPMOH0sxePYjx3l9W3bmfZHmRgPccaZosdVkKKW3tXopdVTkA+jawmJ6E0n2AjaQAlbcknu/S2aWlrCNbpiC3Jvc9Hg8l9BtKqNmktgFJNpTo3EaJ1IoWvcU9FTQUwM1wXL8gEmDi1jpHZ1G+H3BJwmouRqyLGIJlxEG8zRGSqvqTrVBcuovBlMwQLd0Qpd3iynLCM8ufMAd3/9AT525+f5+L/9Ind+5k/Y9LFPcuemT3C06ww2TwZbpCwV5gUqdIYaYW5/BW24JgPI6M+h8+awBKuywNvjixw/E5YjVDcLomuZAc1jXEz+Mm3nZ9hnn2Jrew+/OqDlSEcvXneakDtO3B0mOeEkdO4c3/3ql7AZLJyfDHF6KkmPew67pywHXgxeYRpfvwOoPE+pQS7t9BfRRaoYYlJUSZivAjCizkrs+186iHpTlzCHpEJPkWzvTV2SD0LBWBcVsLpgWaY9aXwFTE2TBkVgocGdW91E86klBGl926Y1dTfBitRJRaBa0Fd8UmMKs6/cKJOuYPKWpKy+K4Pdk6XVep5Nmz7Npz7xNb5/1wN89TN38ak/+jTf/d4P+LMv382dmz7OKeMgvRdmsfpz6D2lteTNRr5BmHIm3xxaz5zU8LGx3+7EEtuU/XRMzOBILqN0zki+ga8kh8BFE31REqF2zco0ILUzK/9e5BVOno3xsnmMp9ocPHrEzJZjVp7u6OUFVT8HOuycGY0QieUIB+JMnB0j5PHxrW/dw6ZNd7J1914G3Alsrml6E3WMvhLW8AKGYA1Nw3H9IIXIGpmXR5qoprJy5E6YvTfqsrp+SkXzjB5dcFWLbtSMXzAlNP4c2mDhqh7josRg/1CQrR29PHrMwiNHzTxy1Mzm41Yea7Hy8BED+/v9clsvIfTi+9cfgM2Vz2IEjzFQlp+lyBMJM+/93vc1ILqRibPR/+uDYuPFVbPKm8PqKWD3lOUT1+oro3GmMU9lsDuzfP3+R/nEp/6cz33ya9z1ya9z/5e/w4N/8T3+zR138Ok/+gRW6xAGx1lGQwU6h6PY/BU5jC5ro2B5baOPkCQcgmBqCdd43nBWZl03NwERjGCDvyCbP8eGIiidGfpn3uR85fcMZt+Umd/Pac/wVGsvW9t7eLqjl2cUfWxT9rNDPcgO9SC7VX283GZD6xhjMpJmZDKI0xPCH0nw3Ct7+fw3vsVfPboV3VkXFlec7nAJXaCAObaIJlRF5VuXSP4AQGQJ19B68msCEF2xBfnAudHnC3NGNEQUjQ2FdhR+QjMwmk9tUQgoTnDxOxHt+vkhPV/Z/BKfenAbX3tiL197Yi+f/OkzfP7h5/nxXgWvdE3SNpGRQ83Nn2uM1NZo4Y1AJCKVckuBpurhm+nlflMgatY4zbajOLVt0boUGgyt2thiM7oLc5gbnUItvix2b/4qEHUHKnR55jgbq/DVv/w53/rmj7j7T7/NpzZ9jG9/4vP82aY7+Ld3bOLIrhepz1UZHwvSOxzgtL+MaWIWk7+K0b+2U2kziLSeOZln5Uguo3HPcajXL6twoXG0njydvkKjG6qUre6bWaEvu0LfzEVUU2le73ayTdnL47+18kSLjee0Q2xX9bFN2cvTHQ6ebLfz61NWfn2qi8dPWXjyhIXn2ywc6HRwOpjBPhHgfCTDsD9Ju72fz3z9Xv7dPffxhsWO1ZfEGEijC+TQxxZoD5TpCNaQiJofHIjkvFujOYvozW0KVhjIXLmpIWLCydYFyxjDUp5M+AnNJk7zcDJ5YECjob6owxG+h8ZX4MRoki9s3sPXntjLt7YfkttxfXvHG+zsPC336BYAFlFJMdHCEl+46uBfD6Le1CUcyWV52uL6lmTNwH/fIGoeXSJUnACPcFTFxLPmhiEa9xyaqQwm3xxWv2R+Wf1SxMnqK2Pz1aQ+bL48qtEYQ7ECv37xIHds+gRf+exX+LNNn+IrmzbxjTs2cXzzFpaDMSLDTqLeabodE0zFF+mayGG9UMXkqzdO7I1BJOz/7sQS++xTdEzMyOZY82EgbqTWIzXQbxlN8KuTFvY7pjh+JszRoSAHelw8o+jhF4e0PH7MzC7dabZr+tna3t0AkJUnW7t4usPBs6peth43sLPFiMU9TZc3xZlEHpsrhmUiyB1f/gZ3fOHP2X1KyUAsg8U7TVe0jCFRp8Vboj3QHL7/YEAkhEXjnqM7sYTSmWE4/y7mUJUzuXduSog2muIn/n268C592StysKO5gaJgXHTPXGIw9zadgTy79CP8eK+CH+xp4YF9Kn76uppvbjvIv/ubZ/nylpd55KiFN06H6XBlaRmfpnvmktzTQezDGKnJTPMbgWgw+6bcHFNopGYg3RZN9H5BpLowh9qVweifwxSYxeSbw+LNYfIXMXlLcsK13Zmi05NiIFHkuLmfTZvu5NOf/CyPP/Bz2p57AX9HB+9OTnFpwk12xEnyfITAZIa+0wlG/PPYPVVMnnkMvuak6xyGwBzGoBTi7mpMPLBG5tna3oM1Mo8juSg7lcImbh9PcXQwzKvWCXZqhniyzcGvWqy8ah1ln32cl81nedk8yk5NH9tVPbzePcF2VQ/PKLp5RtHN0x12trZ3sbXDxtYOGzs6unmm1cb21i7aR+PYImWs4SJd/jnOJMv8L3/9OJu+eBePvvAqo9MZ7P5pHAnJDGnzlGj11z5wEAlhEXVUisk0w/l3sYRrnJ57+yqwrP98EZVqTjSKidqiJF1oIZHHsiWlmh976iKHz4R4RjnID15qk8vQWydS8vcZwlVeMJ/nyTYHR0diktA3hqIJRrk2uDq/tjlKJmb+Xg9EA5krV4Go2df/g5pzlnANY3itOaf1zGEMzmIMZTD5sxj9c3K0SROqogqV6Eovo43k6csWOZ2Y5dl9B7jzE/+GX/z4QZYjQf5rMsE/OqeoOAa57I6QGPaRdM9x5kwCx2iGLlcFk2ceY4MV0Rkqy7QfY1AadSiajtjji7xoOEd3/KKcqT7Y4+O1LicvGs6xQz3I1vYenjjl4IkWO0+02HmqzcYe4zCvdY3xqnWU3fohnmqzsfmYjl+dNLFD3cs2VTdPtdnY2mLlqTYb25QOdukG2WMcRjEujYTpdBfoii5Jh5GvwOnpOr8+0MrHvnYP9/zNo5wNz9DtS9Ifk3xJVahKh08y5/Th9/8wbwZEYtatOVRFMZmmP30Zg78ksdtvoIlsyaU13UCFP9M9c4nezGWU7lmMjVKB7tRFlO5ZXjCf56evq/nG0/vZfNzKS7YJNL4CjvQK3TOX1nTRESxzQ7gqzU0KlGibnKHdmcYQKTc6nGZQXpjDGKnJQBYgvBGIHMllee6vuBfNQ+NudvDzdUH0fgILqxGRIrrwLLpwBl14Fn0ohyZYQB0uo4hUaY+V0WYWOOFNogknMUciDIYD3Pc3D/LJT/0R5iMHWRkc4C1zF78bmWB+cJy5swEi55KE/DXsZ2bomZKSlEa/oNQ3QBSeRReexeAvoHFJbOUTwxFesYxzuD/IHuMou3TDPNXm4MnWbrYcs8rrydZunlH0sUN1ms3HDGw+ZuDJVitPd9h5osXCEy0Wnmqz8auTJh47YeKJ35p4qs3GTk0fe23nOTEcQuNOYw6VGchcodNdpCt+GVNoCZ1vno7xDFZfntf1fXz8a/fyR1/8Bt1jF3BM+OkPSRPiTJFl1AGppdatjBG5GXNOhHfFkGkR3rVFb668er0pJ8BkCM9jjNQ5NBRiywkb3919nO+/cJKn2ns4NZaUys9jdYyNcLHClZVrlkRAQlTTCva02punNyONfTRGanK3IlFRKhgcognjjUAkIrHNvf2aQXRbNJE5uqplhKNl8Eub1PukcKao1zAGpIFM5lBjpk6jLkYXnkUdnkMTWQVRW6SCIlqmLTCHLlXBPFPile4B7IEwvW4vf3r33Xx60yaW+gf4x9ExLg+eJWMdIjUSIOEp4PRVcCbexO5ZJbdKXWVKjT1K9B9Hsk7LaIzW83Ee2tfBliNG/vo1JVuOGPnVcQvbO3rYqexjp6aPHZ19bFP38URHN5tbLDz8WzPb1H38+pSVHepeXjSfY7uqRwoitFp5aJ+S7aoeXjKd48igD8VkCr1/ttFwUQqvG/wlfjucoCt5BZVvnq7kW7SdT2OcmkXR7+LjX/4Od2z6OJreYaznfDgCsxhcGbqmL6GLLnGrhZE34w8pnRmMgTIdEzMyRUo0brnR559sDHN2pFcYmHsLW3KJY2ej7NCc4eeH9Hx393EeOWrmFbsTtVfqoOpIr8gMi9UcS1lu1yuY0KJ7jgib66M1eRymwpWV3pNYkEPhQiOKalNrYvG6IGqOyKlds2s6zN5WEN3skrWAWI38kASkIvpwAV1odbKYNlqlM1LBMrOMPlpB7cug9mXQeTKcm1vmkP0cmzb9EbPdvVSMNubPnCcxNIl/PErfWAzHhTzmoHTSKYOVRilwFUuojtZVMeJ/wQAAIABJREFU5HBvkN2aEXZ09rG9s5stx/Xc//xBnm4xsaPDxi5lD0+fNLO93c6Ojm62KR08renhqc4efq3p5VF1F1sUdnabz7JTM8Tjp6QcxeaTZnZohtjb4+TwmQiGUGn1ete/hhpmsL+KNlyRC9CM/io2fwGHL8uf/eVf89Xv/4ytr7xBz1QY3XgIW0hqHq/03t7y5o1Mk+aImfBBVhtuFNeEqMUSJlvX9DJD+XdQeXLsNozywD4VP9jTwi8PG/mNaZTDZyIfaNn/WvmrbPhz84TA5vsg5FDlydHZdO3GSA1DZHX0aKe/SP/sm/L0CxHSV7iytIzNyNPzRDRS5Ktu66S85sSbuDihpcSGhONpSy7Jtm1v5jInNL0sjvtYGThDbdRFeNjNyDk/PZMZeqN1TNEFTjozKAIFFP48BweDPHGqh5+/ZuTRA1a2tw7wrKqXbWozT53S8e2nXuTpE3q2nuzkNdMZ9nT28eujeskc67DxlKqbX2m62aLq4ZcKC79ss/HzoyYea+niWe0ZXrU7OTIcpXUiJfUc8F+f1yaBqCCf6AJEpkBNBtE3/uZJPvcXP+HR5/bimIxgdEaxRUpYElVUt3AS3uwSQQGR3xGAEj5Ib8PkEu8VvRj29/vZ2tHLlx9/hfv2tLBNNcCxs3F55Ig5Vsdwi+H597o2AmzrRIr2xhjNZi0nwvJd08tyXwRhGgp51AZKjf+bl1uOmWN1Tp1P8ZxumKcVfTxy1MyPXu3gB3tauP/lNn74Uis/P6S/vSBqzgs0g0ioa8XUnDyN+Uzxd9L4jQZrtm8sQsYxTN3SR2Vogpx7mqmxaU675zBPSXT1521jPKXu5ZfH9PziDR2PnbDwTMcAz6nO8JzyNC9qenm23ciTR9VsOdDGi7petrUaefywlkcOKtmp7GFrh40tLSZ+eczIL06YeKStiy2qHp7UD7FTP8xeh4sTo0n5plriq+Haq82ttT8b/KvDe9eCqITDN8e/3/Eqn/r69/nBo09jd0ZwBGaxRUoYoyWUDRB9kKe5OORkM1hoonBFHjkpHP29Dhc/3qvgnp2HefiIZKKJorVm6ouY+apwZf+gIBLy1fxz85Bibbgig0fIn5BNbaAi+57NA6WPnZUmwOtDFRzpFdomZ3hgn4pP/2w7n3/4ee7ZeZi7ntrHZ/96J3/88+d45Kh5Le2nudHH+3nVBctyiFMduBpEkhNYQR+oyu9rZsjaR4Lk+8d5s/889UE3idN+Ott6ONjiYJ9umKd+Kzn7WxVdPNVh42mFlR3Kbp5V9bJLc5o9mkFeUtp45kA7P3hyN8+e1PGiwsqrhiEeO9LJC7p+tqsdPKHo4rH2bh7v6GWrZoDdtkn2DQZ5ozHlWxcsy/ttriW5GSG5NogKOHxz7Dys4I++9P+z957hcV3Xub+Sm+Te5+afxI6rRImdlixTsiiJJCCwAEQjUdkpsYuS2EmRaDMo0xuAQQdBNKJx+qCXQe8gWFRckjg3xc+Nb+Lb40iyLclq/P0/nNkHBxBYJEqWfJ0P6xmUGeDMmf3utfZa73rXCh58IgzrJQ9FzZKegM4/ROY91Cnu1rKcg6QE5w3luKX2cnPbFc5UtvOssYqEjCJCjmTx2L4Uos5bOVvVQV7PNfK6b5DlGcbcPinPM02v75Hvia3z2l3IDP923p8ISXN8M70/1naJoS3mFSnT4srXi4SJuqmPc9XtJGcW863Ig/xZ2HZWHcrggZhDLIg+yIbjWtLquqX74hiYrbFg8MwWGhGPSuEOo3tmnqnBMzprzKOgUSjT5Mqs3vnKNrnLUuscQnN5GIN/HLN3nIuOHloMZVzLr2GoyIHP7iDttJmk59I5lFrADrWdvZpSnjMUsldv5zlNHntyLGxNMxL3so6EE9nsO53Di+cN7DyWwf5UAwcybezNzif6tIbETCsbTucQo7Ky21rDsYp20pr6gzvypLTg/VPyTjy34q4NTsm+FxAd09n5g68u5s+WrMRc46G4ZRCjZwCdf4gsr+QN5HPW52BiMLJY/IKp/FKxhyR1EUcKnJypbCfHPSy3QGs8I2Q6BuQpEWJhioWY4x6W60S/TcBkez8e/griqPJIId5vapD1nu0aQuUckEdIio3c3HaFw/mNRJwysTjxRb737MskqgqJOmtlacJLfGXDLpZvO8rzdocs4iJUk+7Temcr9dyTKbIjymyIMJFWFPOA0mo6OVnsY7+xmnRzNRMNHVyvcNNpq6PJfpmLZc0cPmXjuLaCg1nFPJeVx7ZUDfEn0kg4mcau8znszTCwJ13Psy9ryDKUc6G6lfL6Lra/kM72sznEnMxih8ZOTJqZw8UNHK30cq6hm2zPOMaWK5j817B4r2NyX0HnmJ2+FRQWeZ7NXYJIpwCRyTspgyijoJo/+POF/McHHsFY5cLulRoP9c3Dwf6rT0c7uVub70AuH6qDm4U4uwoPnOkYIMszLJ8tRCgnXq/k0/22Egu3MnvgVYmY2jLD5xPnI2NQBkxsEMaWSVJqO9mlvcATB9NZsOUwUeeleUamtgl5NMupijb2WWo5UuAkr/sGKbWdnKpoxdAsPWdWK4QAkRjj+InNLQ3RMrdOzWLLCrUZdX2A4sBrnC5t5nlbPcnqImLPWdmSksumkyYOnbfxN2M/4h8HX+Va1zSB5im6+/6KXUf17D5nY4/KSsIJFftSdRzJNnIwJZMdR8+w93gqKfpC7OVumi730N42ir2oiahtR1j/3Esc0hej8fVi7b2Cuf8qhp5raFqnyHSNktk4Qnb9KLq6MQyNUgercqGJmD/TMSAPvr0bEGkVIDIHQZTn7kdT3sh9X1nEH9+/HP3FJqyOTnKaejC2jqJpnvzcF5lIByvPrKI2UzLwQzntbGyZlDs4xRlD55MGC4u6TqZ7SN5oVA39cjv1F21KJrnWG5QBa5HCc1VjL8/bm4g6a+XxfSk8/byabdmlpNV1UxAEoHhejnuY4v4fUNT3OtneEVTOYC2rTRL2P1PZzqmKVjEV4vYgMrjuDCAxsU5UhIVAosYxiLo+QHpND2k1nWzLKiHilIkdOWUkpNuJOWtjl/YCyeoi9qTY2PfcMbo9AX7zNrzLR/wCSD6hJ/KIip2pFnaf07DjaBq7jpzkpTNqDJYSqmo8ODzd+Lz9+F0DdLSOk5ZZQE5eDYey87C3DJFS14apZ5Kc9nFy2ifJaZkkyzuJ3jGGvmkSc+M0Fsc0Ft/ULPCIRWVqnbrt4Nv5QCSHiMFwzu7sR1fh4I++uoQ/eWAF2gsNGOpbyKrvwdQ29lsBkUgKCA8k2p8zGgKk1vZg6pCGWqmb+iSwXO6fFRpZu6/PsAR8M60QwiN9nl70bkzd1Cdne8UZ7Xl7ExGnDDyy6yRrX8wkIaOAl4o9aL2S5xJcP71/XA5zhWyWGOqc6RiQ1GEV7flis9H5xmaDSNMQ7LXxSucUnWMITdMQRvcoVr/E3tY7h1HX9pFW1UV6dTc5jf1YfBPY26WhveJiTpQ3s996ieTMYiLPWQg/aWRrVgnJmcUkqgqJTy8kOsVC1Fkrm06biTmhYe/pLMKT9vEG8D+Bv/k1vJB3iWc1JRwxlbEvVUeK3o69uAqfp4uhwATtnl58l9roaR7F29hHZUUzZZXNlNZ3klHYwK6sfE5WuLkw/Te87OxB0zFBTssk6U3DFHa9jtV5FUP1CKZGUcT99B+iEkSy8pF7HLNzgFxHL7n1LXxzZSh/8NWFHFGbsDm7sPiHyXQGsAVe+1zPQ182U9axlHUeZVuFEsBa76gcWipbLHReKbFR1Pd6sPjbRkxqLo/uOc3DO08QccrA4fxGWUtu7v+cz8QGI0JXZRgrMpxZnplN5D6tNyiC5xuTJggECYo5lwewtV6hqOdVmbSnFAEUhFQxkNbgGeWIvYlDeQ3st9Wwx1DJNm05CdnFbFEXEJuRT2yanZgUOzGp+bMsOlViBbxoLSH5fBa+H/8j9sA02d4h9ubVcrTUyamCOtLyK6lyt9Pc1ke7L0C3t5e2hi681W20NvRzqbKNCzUdVNb3c8E9iKm+mzNlLk5ccHGuoRNdz1VSXIOkOwbJ636VU8Xt2P3XuND2QzRVvb8VEN2/8hkZRLmubsy+ITKdAaw9t54J+vtiSgEQUcgUXkKMh7EEM20FgVex995AXR9ge04Zqw6m8+ies4SfNHLAViePj7EHXpVbJ+74+QW9aY5vBiziXCy0yZVAmgWiuX9E7Abqpj5ZKkjXIhWuTG0Tcrys8Yxwrrqd5+1N7DJWEpNRMMui0vKJTrfLFpNRQKyqkLjMQhJzSkjWlbPDeJFd5ir2WC9ysKiKPbnFnGhoZldhDQmWixy44OVohYfnrRfJqmjEExilOzBBfU0zdRdceGvbcVd10nCxk9KKLiqahqhwjVLiHCbXN4zZN8DZqjZ2mS+S0hQgwz2IpfsVzlZ1ktdynaxL/eR7pjE0Dt8THf72IBoi19FLfmMbD35/PX/w1YW8mGUh19WN0TNAlqsXc9eNL3wRf5Gm847KhW2td8ZTGJonyOu+Qfnwj6QCfVMf+yy1rH0xm+9sPc7396eyQ1POuep2mcsn9xcpWOaCLX4nDyS8jpKOJExQkESYLzznLBCl1feS4x5F1ybFzunOflLrelE19UmZm3bpzHC+PsCxUj+7zFXEqwvZ+LKVsFMGIjPy2JSeT5SqgGh1IbFZxWzOLiJOU0K8tpQd1mp22mrYnXeJ/QWXOVzi5oVyHy9e8HO00svugip2Fl4kKb+Cw7WtHKrv4MilDvYXN7LPepHj1lLsdc0UVjSSk52HxXyBmqo26mu6uVgZoKR+gCL3OLmXh9DVdmNyDJPXeo1MxwBHCi6z21SF3j9O2qUART2vYvGNYW+9ypniZgrbr3+OIJI8kb2pnaWrI7nvqws4mmMjz92DztlLtrsPY8e1L/xM8YWAJxg6ab2jstqOmFaR3/MKhuYJOfW8YvsJVh1MJy4tnxeL3OS4h2XvpPePY2wdlwvjSgcgxPzv+PkJKpBfULdmN+ql1HaSeqmLjEvdZF7uR+2Szs2z+4n8ksZzln8UU8cUtsBrWAM3UHuHOVXbyeESN3vz6thmqCQus5BN6blEp9uJyyoiUVNKZE4xMdpi4ozlJNuq2FlQx3MlTvaXezhY4WN/uYcDF7wcuODlYIWPQxf9HK5s5vmqFl6o8nOoookD5Q0k51VwsLqZl5wB9lzwcOiCm6MVLvbp7Bw1FnLgfA67T6jIMJVTeKmdkvp+CuoGyHVMYHGOo20cJrO2j5zGQYyeCUyeCbKb+jlf2ca2rBKps9M3RmnPK6RWd1AaeDU4BeLeziR3AlGhq5OHw2K476sLOK7Nw+7tJbuxmxxPP7rWK1/4gv4iTHk2ynYNYWyX2r536CtYvu0439y0j7UvZrM/r54cz6CcXTS2TGLpkGpVGQ0BzlS2y7UtkUARCSJVY+9dZQ9lAAWTByLBklbXTeqlLor6XpeBntEQkGhG9T3cN6sfvm0SXfsU2rZJSXjePcjJqnb2FzSyw1TJlpxiEnJKiNNIoViSqYI9tlr22Rs4UNjEs6VOni11sqfMyd5yN/suSmA5WCmB5dlyF3vL3Txb7uK5Mhe7Sx3sKWliZ3EDu4tqOVLexIsVTvYWXWJbfj27S5xsL2jkYIWPYxe9HC2q4aA+n9hjKSSdzOBcYS1WRwBTUFgks3EEddMYmcGpBDr3lAQi9yRW/xWMzjFOl/nYq72Awd2Puq6Dwq4r6D395LZN3PPB/k4gKvZ0s3JjIvf9xf2c0OVj9/airutA4+2Xs3O/D97oVn07Itslpv0ptd10vhlxRTE+JqWqnbNVHfLUCiUnUGTXBK3MHnj1rvuF9HOYNoJsmnqpS+bViWualZ3TekdJdw2gDj4eq2xlm7WKmMwiIrIK2ZxdxFbTRXZYK9mVf4l9RU3sL3FxqNjF/hIX+4qdHKlt4/maVg5WN3Pgoo89F9zsLnWwo7SR7YV17CpzsrvUwc6yJnaVNLKjtJGdxQ1sL21kV+ElXipx8EJBPUfKvBwscpFkvsTeIie7Cus5WFzP8QsNHM4tITYlk7h0LccqnGT5+0nzjqBqniDVN026d5pM71WyPFfQ+6ax+KcxeyWRRLNzhDzfOOkVfp7LKcHiHULd0EFafRumtlGJgf4pF7HuLkBU4u3h+5u2ct+fL+CUoQC7t5eM2ja0vkG5q/VemvJ+12y+4qy6qY+U2k7OVbfL2nqW9ulZU/1UDf1yKJfXfUM6eiimNMwnonKnOt/cbKHyfCQApaydqS/3c7zMz07tBe6bobOMc7Y+wOELfrbn15JkrCLRWsnu/AaeLWliX6GbXYX1PFfoYG+pi/0lbilMK/Oyr8zNwTIvOwvr2VncxI6ienYW10keptTBnjKnbM+Wu3i23MW+Cx72XfCwv8LLvotODpe7Satp5cW8SxwtaCClqpU9xnKOljrZbSjlaFkDL9grOWy/QEK2hegMM8+XNZHmGyK1bZz01itoAj9A2/UKme4pUhqGyXaOY2u5htl3BU3DILqGfvL9E9jbp8lu7GafsZzTlV5yvAHOVvvv2hPp5lkEtwKR3jWGxTVMvqufYncPq6J2cN9XHuK0sZii5gHSa1rRekfJ+n9g3OcnsVl9TkEKWX6PNKgrozYgySK3TJIbeEXqcvXOtJArwzWNZwRTm5R8EOFVpmNArl+JJIMYSXM7VoUASLZriPM1HRwtcXPAVsdu/UW2act5bO/LfH//eZ46rCL8pJEkdRGH8xu5LydYdVa7RySAFLnZXexgb5GTZ0tdHCj1sLfcw4FSH/sueCXQzHncG3w8WOZhp72RHfkNHCr3ceRiC/uKXTxX4uSFmjb2l3sk4JW7OFDm5ECpm/2lTewrqedQUT2HzJVkVjSjrW6hzNdH68Qr/Ojnv+Af33iH/MZWdqTr2JdjJy7Vwjb9BaLT7eS0XeO8Yxi1f1qh1T179LsY1JXfcU2WybK2TPByTSu79OUcK3NROvgDVI2S3JYoFNs7r2NpnkRV13NX08XFdL3Zw43HMbpHMbv6KfAHWLohjj/61nc4os2nsG0EW8swKbV9mFqn0bhGZ3Vdii5UIf91J5XWLxoYc88kWq9UyxEab0raV1Z9LwUd19E0DZDXOk1OYy/aoHLP+ZoOuRHP0j5NYe9rqBp7sXRdk7l8gm0hzj2fxfULLpyheYIXCh2sP6Zh1cFUtmWXSgqz84BQ5xvjPpELV7mGOVAqeZa95R72l7jZXeRid4GTnQUOdtkd7K/wcajcN+exWf7+QLGXPXmNPGd3cqS0mQOlHp4v9nCg1M2hYhc782rZlVvLzrxqduVWsyP3IjtsFWy3VbDbUsHOrELabvyUn/0K3gLe/AB+DbzDTV75+5+x+3wOuzLyiM/II1lTQURqATnNN8hwiYr/7XdzUY1XN/Wha5mQG64EhSO39RppNZ2ylFZKVTsm3zhl/T+8syD+PCDK9k2h9Uq6z2bnAHnuHhaHJ/IH96/gpLUMu38Yi2+M9IZ+jC1X0HnG5d7/+URj7vT/v2gQCYqQkr2g8cy0Z4tBA7bmKXJbJlHXBMio6kbT0I+9/Rom3zj2wKvya8XZRnxOgl2hburDHGSRaDwjnK/t5Exl6z1fv6waFJx1K4YbW9qnKRn44byvkUEk2SgvNwQ4eambE3XdHK3q5PmqVg6XNXOwzMuBYi/7il3sK3Tf8vF4VTtHynycrOnkdG2AF8r9nKnt5uWGALvzLhGnKSFRU0q8tpgETRFbNHYSsu1szsknISufqBM59P/1z/nfNyUQ/Rp464OPeBv4+//1BrvOZZJ8Ticp7uSUE37ORppjhBz/BDnB4bq30ygQRTKVc0Au3tmDAhv7LLWkVnfIHkdMVRCKsILKdC8gMje1syw8ifvu/w7qsgZyPQOYgl2ler80yEypAaAE0d1ohX/RILrVIhPEZJNvnHMXWzliredUiZ9jdhenS/ykXGgnr3Va8r6uIVlMXpB/td5R1PUBeYGbWqfkDTGtrls+H30W16s8P1k7rsqM7dslJSTGgnuYbNcImmaJV5bTMkmmbwyVZ4R01xCpjgFSHQOkOQdJcw6R7hgMfj1Iikt83Y/aPUJqg5Su1TVf4Wx9AH3bNLr2KZ7LvUSkOp+YjEKiVPlEZuQRo7ISlW4mKt3M5lQzcWcMTP70F/z0jY/4+Vvv84t33+ONd9/jzfc/5F/efIeXsq3EH88iSZ1LYlYp609bOVndjb5tmqxbKFjOTRSIzs2UYKZFjCc5W9XB87b6WeFTSe/r6N1SFkgMybrtYg6CSCi1ZvukHioBIn1dM4s3bOGPFq/EXN+MxdmLwTUUHB8/jrllhneoZMALcf4vO4iUrefK+y82IY1jkKMFDjJqeijufpXakb/F7B7jVLGPcxfaKOl9HXPn1Vkt6kLAxNI+LWfHRLFTbIyG5onPBESiuCokwYSOg+ifutUGfZ8sxucbR9syNct0rVduaeL3+rZpGTQa3yQ57lGsXa9i7biOyjVMbtcr6Nsn2KYtJ0pVwOb0fKkpLj2PTRlmYtLMRKWb2JJiJu6Elr99E94EfgX8+uZHvPXeB7zx3vu8DVhrHMQdSyc5PZeEjAI2vmzlcJEXQ/tVuTP0dp5IHDJ1vjF5fEamY0BOZarrAxzJbZilxyZi+LuZeTrjicbReifI9klCkwJEukt+vr5qI99YtZ58dxdmR0AGkc43ga39uix1OxdEd/zfXwIQidYDZfesAJHJN05+xzXOVbRzurQZq3+SlAvtpFZ0cNBYg9U/KZGVa7vQeEZkyo+IHnK7rnNx7CcUBF6VaUACQEJw/tNc83zdsaaOaVkURfyP2xGQ79N5g4c/1yhZzmGynMOonSPkuEfJckudqDleidavdo6Q7RqZ8ziE2jUsvzazaQhD8xR6/yQ5TUMY/VOkXuoiOsVGoqpQIp8GzzXxaVbi0q3EZ9hISLGw5aSGn/4S3uAmbwP/9s5v+MU7b/M/33yDt4CuKz8g8VQGiSkW4tNyiXw5l53GanStV+7qcKlsuFPulhr/WHB69Q3OlrdyrNCJuj4wSxLsbjzB/OHcDIj0dc380eLHeSx2JwXeHsyOAEb3sBzO5Xe9OkvmVqkXfTdA+qJBNFfoXphQ3TlW4OalfCdH7S5afvS/sPkmqR//e3aqy0i52CELbi5JPMq3Ivfz8M5TbDxtkgYN13XPahjUBDXpRALibhgJdwKQqE9lNATkzl1lB/YtQSQvJNcoOUHwZLuCIHIOk+0YJtMxRGbTEMaWYEzafCX49WzLrh8ks34AnXMUnWdcnn96otBDxAmjDKLEjAIS0vNISLdJQEq1kJiay2FNMT//DfzrB/DLj+Dffvk2v3rvPf71l7/krQ9v8tM33mbnuWwSzuiJS7URm2YnTlUgzexp7J03fTm3Iq5Mkyo7NLVeaSHaO69z9kKzHNoZPKPyVIl7BZGxoZX7/uwhIg+ewO7pxuLsxewdJ6OxH0PzFAU9r1PQdQNb6xVZYVZ4o9+FIV1zVXZE0kqMeLH4r3C2vJXTpc1Uj/yE4s7X8Nz4Z47ZXahqA2zPLuXBuOf5s7DtfC3iWRYlvMADMYf4oyfj+Mr6nfzF+p1EnbWS0RDA1qHUvpgJ0+/FhIiJUnBf6x1FGwwr7wgivWsMa9s1LO3XMLVOo/dL2a5s1wiZTUOoGweRJ3cHG86UZvRMoHeMYXCOo3eMYfFeobDrNcy+KV7KdxJzykJiaj5JaXaS0/NJTM0lKc1GUpqNxFQrySkWDmfZ+R/BjNy7wC/eepNfvf1r/s+//YI333+Pt4C9KVpiT2okBdKMPKJTLGh9A6gae+bdXZRASm8IyK5ZIidKHkikZtNru9C7RyjouiGHdmk1nXJq/I7eaA6IsuaC6HI7f/Af/pLkExnku7uwuvqw+EdIaejF2HKFwsAPKOi6MWuCxe8SiJSZOXGeyXQMyDpvL+U7iTxu5JCploSUPPZkVxDxko4lMc+zIvEoqw9kyCL2K7adZGH8ERZsOczDO0+xz1LL2aoO1EEep1jk4hwzt23ik3ggYWICnlJv/GPh6e1AJNdT7mL4r3LCtlHxmHaxC5NnAr1zFF3TCPb2G+S2XCXmpJmtaUUKyyc5NY+t6bkkpVpJTLWyNdXK4ewC/u9H8H/eg19/CB8A73/4Hu/zAe9wkzeA1onXiD+tYdOxLPbqK0lWF3DAWoWxdXymnTkY2omUq9Y7elfhnsjGicO9qq6HlKp20mo6UdcHyG2bnjVVwdoyJWfSTL5xSXvcK4XAOt8EOf4r0gbjHcPqGuS4pZz7/vDPOW0uoaxlgDzvIBnV7Zhap9F6x8lxzk4Hz7V7BZEoQIqNQxygxSaiPNMIUIi0r6V9Wtp8WiVuWWpdNyfKmzlS4GS/9RJ7zNVEnLUQdlwni9R/f38qq49kEnHCSOw5q6Q0m1XCnpyLPG9p4HiBm5QL7aiqe8is6yOlspN1R7WyoH1cWj5nqzo/tbzvb8s+FYhuBSjVpT70zlHM3kn0zlHy266TXtlNwnk7Cefy2ZZeLIEoNY+klFyS02wkpVpJSrWy7byVk7oS/vXmTd56H979EG7e/JAPP/oNH/E+73CTf/sQhv/6H4k/ribhjJ6dWYXs1JSyU1NMVmM3Wt9MLK71zhbzu5udSsw7VdZqMht6ybjUTVpNp5R5U0wRsDRPyqGXxjF4WxBZXIO8oC/ivj/5JumF1RT7esn3DaGq6ZC7YD9vEClVR0UVX2wymuDunl7fw6kKaUr5dk0JUedzWX9MJ09seHjnKR7fl8KaF7KIOGUiPr2QrVkl7NRemOV9VE19qIJMapFdlDXe3aOYveNYPONYvRPYfJPktkgJFWVDnvhber9UP/qiwXJXIJpbab+T5fikxSI4YtqmEbRNI1h90xhdkkjHnpyL7MgsYfO5PJLTC0hOLyApLY+ktDyS03MOI6d4AAAgAElEQVRJTpfCuuQUC2n2at4IFlnf/RDgAz768F1u8j6/ufkhv/jgJj/532+SeCqDpBQjialW9upKiTtn4lSpU540LvpI5tJE7nQzRBpbCOCLDz2zoZeUqnbOXWxF7x6RD/4Gz6jcmKh1Dt3xTLQzzcB931qBqdaDtbEVu3+YrLpuNB5Jy1rjmgHpfPZJQDRfyCJqKsL7pNf38KyxiqefV7M48UUe35fCU4dVbAyeX58zVfNikZuzVR2cC1bsxd9Wtg2Ifhsl1Ubp5UStTUwVsfonMXvHpYkhl4fQNQ2S0yhN8JM5al3XZEaCEMn/osHymYJI55n/50bPBAan9GjzXyWlsouYU1Z2ZF8g9rTkzremSUmFpDQpsZCUJiUXklNNmGu8vHkTfvUR/ObDj7jJe/DRO9xECune/PBD/uf78KK+gKQzOramW9iVWUzMiRz2G8ox+8dmTVHLcg7KGgnz6YzN54kMnlFZmUgs3qzGPlR1PZwodpPd1C8vBrF45RDwDiDadOQ8X3tiA8Webgy1Xuz+YXIaAmQ5hzE0T32mIFKaWNwCAEpBw7lhnQjtxNfzmal1CkPLbEGXHPcwqXUB0hsCsgeSw+ugWI3BE5xo7hmTzDWK2T0mmXcca4skQ5Va3UFKbSfZriHMbVfI73lF5tV9Ge0+OaPlHkPjuVtPJHmfmedL3+v9k1j8V1A3DpLbeo295kuEHzeSnFlM7DkriapCkoIp7oT0POIzbHKaOznVxAV/H28BbwO/+VDyQvAuN2++w4c33+NXH0nnokJfDzHHMtiZmUdympnI41lsTbeQ3RCQRUWECJ/WOzorA3dbcw7N4qmJkE4MDhNhXVZjH2b/BNaWKTnEM/sn0AdDF41rFI1njCyvlLzQu0cwOwd4POkAq7cdoqJ1AF21mzzvIJrGXhlEWvddpNE/AYjmZstyu67LemlpNRJTWtlNmu0aIkfRDq1u6iMj2IsjUr7qoGKQ1jsqe5zcruvkdd+YRddRSkqLYqvYCEyeMSw+KYyzNU+R3zJNfpsUBSj1wZXns7uJJL4cnigICEGhEePub/eY4xsn2zMpg8jUOo2qYYDsxiHi0gqJSbETn26ft04Ul26VLSnNwOX+aX598yPeAT746EM+ev9XEqSC56K3kehA/X/9U2KOprM7K5fEFCNxp3KIP6fnVKl31lhDod4iQo073QwxktLaMoXZPyFLfokQztZ6hdTqDk6X+eRBWSK5oHUOfRxEniszIHL08/XVUTyXbqC8uQ9LQwtWVx85DQGyXSNSNvQ2ILpXxoIoMGc5B+UKf173DXK7ZhR85rYSKAmlSlNuSMoslnwfFXp9Gs+IDCJZ2PPyEDrHENrGAbSNA2ga+slpDG5Wimyb6AlSN/VJjIEvaa+Vop9IYkBne8bJCgJEfD//4+THfi7S4hrPCIcLXESdyyMhs0RiKaTkEacqIE5VQLxaqu9sUdnYnGFlc4YEotapH8np7fc//IAPfhP0Sx+9w02RXAD+669h21ktyakmdqgsbD6bSVKqib36ClJqO2Wuk/BEev84WcHd9k6eSByClYVWsQhy26bROAZJre4gtbpj1lgOvXsEnWMAnWtYrrdleiZkZrbxch9/uHQVmeWNFLo6yXd3YbrcQ3Z9DzrPuCyxrPd9fAbU3RZ77/T+lHWQjKBXyXEPYwzSagRtZ25aV9xDZSu3coCxaKBTyowJpVR9cBic3j0izfsNzvw1uiVpNoNjGINjGJ1jSErSBOs9yrmuptapT81I+O2ByDcz0U4CxcTtQeQfDYJtTP658ESZTYOYmq+QnFlG9PkCkrJLiFMVEJ2SR3y6BJ4EVT6xKjvRmTZi1TZiVFYS0yx03/gbfg28B3zwwQe8/+4v4eb78MG7wEe8F/REb96EfSojW05msl+bT8zpTLZn5pOQnsepilZ5eppS9EJV13PHm2HyjcveRzCO89qvztLRs7VewdoyRVpNJ8eLXJyvbMPgkZISc0Ek5vDoncPonH3c983vke8ZwNzYRnHLMPrGAJl1AfTBsM/gHr8lgD4ZiKQ2EJ1PnHNHg0Adkbxd8xRGf9DD+KdmCb/PVbRRAkVmISiYCUp7ubqT9GAb9qwBxY19pNV0zq55uSS9Qr1zWFbQzWrskxMV2a4hmbGdXt/F2aqOmff2JQDOx0CU4wvKZnmD5hmXb750VpJuvqqpT+4qNLdIIUDWZekAb2qRdpnCjqucKvETecpC9BmrNDgrPZfwlw3EqfKJyQiaKpfoDBvRGTY2pVuJS9Mz/nc/5e0giH75ztvAR8BHfPD+bwD4zYfwRpDRYHe3siNNQ8L5LPYZCog8oyH8pJGDufWyJzI0T5DpGJA1qO90M+60SOcOkJoZtTnDuBYDllUN/aga+inseg2Tb5z9+ossjX8eg1Oasp560Y/VP47VPykprzqla7gXKd6sy0Nku0bIdkis/BzniOThnFJ4KYfsikf5s77H89gnLfbqFPdbNOWJn4vnzL0X4jym8Y/JjBNl5lU50EsZRYiRqXOji7mmPPcJryo2YaVApbKg/DGhkjvdJNFUJXZpi/+KXL/IbZsmv+0KmZe62Ku9QNxZK/FpuSSrC4hOsxJ5zkKcKp9YVSExqlxiMvKJzLARmWFjkyqPmDQD1/7pX3g7GM79r7fe5N0PPuTDD2/y3rvvc/MmvPXWe7wXJKde/Yd/IebF02xN1xKfbiDyvJ6IUwZ2GSvlrI6hWao7CMLi5w0i0QMkJnTrXMPYO69jbZkiLjWPiBNGbK1SkVZdH5CHSBs8Qda2Iir4pKbzjkoULfeMF9R4xmS7m4TR3Z69PgsQ3Y3dCkTCW6oaezle5mWvuYbkzOJZhXFRALe1XiG/4xqF3a9QHHhN1lEUSr3KuqCceRQFes+wLOYvvKIIW5WM9Y+BSOwK8y0gk29cXjgiiyXOC/bO61h8YxwyVRN7xizVgdRSTSg6xUJ0igSiOFU+m9UFxGTky54oMsPGlnQjU//wM9746CbvAb++KTEWPgD+9c1f8eZb7/DL9yQv9QY3+cHP32Dj4RMkpemIPa8hQWUj6qyZJHURZypbZbavUk/7XkFk8o3LN10ckpVi/em1XWQ29Mr3SbAactumeXJvKieLfdg7r8vpccHYlu+rd5RPHa64x6RirXNUNr3r4wX0WWwTxdc6z52b/n6bIJoviSDOcHr/JHr/JFnOYc5WdXCkwMle8yUiT5kJP25g3Ysa1hxU8cSz53l0+ym+k3SMZfEv8uj2Uzy26yxP709n/Utaos9YScwoYEdOGbt1FRzKa+JIgZNjpT7OVkndtRrPiDwcTXAtRXJF1Mk+kScSRUYR15p845haJmU11NTKdgk0p4wkqwuIT8sl9pyZuPRcYtNswYSCdB6KVdkljxQM6+LSjPzsPfh1kMH9xvsfyl7pnQ8k8LwLdIxMk5FbxtbjaUQfS+VYcS1H8qqIz7ASnWIh8pyFQ3kNFPW9PmvH+ixBNN/kC51rmJSq9lns79y2afm+fTfpeBBUE7OmsovHT7IIPzZXxyd5nRznCHoFeD4JA0W00H9ZQDSv3UJMRCzo4sBrFARelfmHSi8vIgQxozalqp1TpV5ezHNwyHKJ/cZq9hgq2aEpJ1FVSOQZEyEv5fDEgTS+u/sMK7afYFHCCyxNPsoju07zxIE0Ql7KYdNp8/wgulVhT4wvlxbOgERnCbpEjWOQ5zTlxJ+3kpyezzZVAVFnTNI0u8wCEjPyiVfbZYtT5ROttstnpLg0I3+87DFWhscStecA2w6+yO7nXyJm2y4efSqEby77Hvf9h//MfV/5Nt9c+QxfW7WOmGMZJGUYiTxrIE6dS1x6LpFnrOzQlGMJ9g1pvaNyavdeQSQW/VwQCSCJUEJ4buWms+q5FAq6bqC9PBMSi0yg8Ob3tsjG5/VCSiDN/Gx81u/l533JQaTU4J5vKmN6rSSsqKrrkaWwlfdYSZ9S3ndRvrB1XsPSdU0eCDbXCnpfI79nRjhF1dhLanXHJ/NEIvwQMaTYndX1AU6V+Ik+pScpLY/dOaVszbATedrI5vMWtmYXkai2k5BZQEJmwSwgxanyiVXnkZhq5ZGYrazclMjysAgWrQpj6VNhPBoSwePro1gVHsvj4XE8Fb2Nr31/PV97KpwNR1I4ZL7AumNZxKRLdajIcxbi0+2crWqTb/rdDqC6WxApD6lKICmnUYtdz+yf4NzFVpJVJeR3XCOzoVcWIVHujtaWu6fyK1PNSpOygDMAUoZrs0E0D4B+B0AkOHXKeaxa76gs0DhfiJ3d1C/TuIQp77/GMSg/X5nin2vybFfvkKTspGin+UQgMvsn5NBDLBSDZ5Sz5a3s0V9k0ykDyeoCtmYWEpeeS2JGPkkqO4kZ0teJarvkldR2ElT5JKjypaKrWuLPLVgXz4LVm3jgifUseHwdDz4RxtInN7J8TTjL12zi64+uZmlINAtCYlgWuZ0HIraTqLIRedbANm0pCZlFxKfbiTpvZY+hUq58C/mlzwJE83kjASTlmdHgkcBra73CkdwGUqs7yGudluslShCp6wNSMfIei4l698isoWuCXiOmfIgROLcyg0cSLvyygkjOmAU5khZFMdjQPDHLwwgqlvAyuW3T8iYnWChKr2T0jsmpeq0CJIK9buu8NiudL7zgrPlEd7OIxAWKw7XoeTlW4CY+LZ+Yly0kqwuIS7URl2pjr76CXdoytqRYJb6cyi6BSm0nIT0IpPQ8ElT5JKfZWLQuiQfXRLN4bSwrwrawImwLj4Qn8N2NcSwLjeF7kcl8Y9V6Focns3DTdv587RY2nzWw21BG1MsSvUiMcok8Z5ETC+qmPtkF3wuILM2TtwWRrfWK7KV1rmHOXWwlv+Mae/QXsXdeJ6/tOvkd1yjqeVXe/YzeMVKrO6Qa1T0sMINn9LYAmg9Es1/z5Uks3IpdYmmflgUZxbDl7GCYbmqZoRUpjyPKrwXDRHyORs/ErGgioyFARr0kHaxq7P2YiQyd2jU4S0tiFoiUtHuxEObOYRXFxrz2q9g6rnKy2Edcah6bz4suVRtbUqxsPm8h9pyZmJctRJ81E33GypYU6byUmJFPYqqVJJWdPZoykjILiDmp54HQJBaFxrH4mXiWhGxm8dpoyUKiWBgaxUMhkTwUFsPi8ETu35DEwoidbFXlEnVSR8zLEnASMgrYll3KHkMlx0o9sm7zrPc5z9hFrVdSlNE6h+S6gc41PCsEuNdF9nkuQoNnlKxLASyeSSyecczuMXRNg6RcaMd59Z9Iregg7WInFs8k2sYBzO4xsi4FUNUGsPkmKep6RV5gQp5LqYGX2dB76801CEhl+ncuEDSekRlxRfcQOv/ITJ9SkGYkpeVHZLaD+NyULRHynCD/x8ecZDf1o64PkNXYJ29yWY19aByDMtN+bqu98j1+2nt/SxDNZ0rqhtYzxMsX2tiRUyanCpPVkm1TFQTDuHwSM3KJz8gjKc1OUloe29WFJKcXkJBiIyktjx2qQuLPW4l4MYsHQ5JYHJrIotA4FoZsYUkQRAtDJRA9ELKJBaFRLA5PlEK/8K1EHcsi6byFhBQL+42VbMsuJeq8legUG/utl8hoCCDmj84HIKVlNvTOZB2DIBIx9V0JlXzBIDK4RjC5RjE5hjE6R8ip78PsHsP36s+xeMZxXfsZ1UN/g9E5QtrFToo6bqC/PERB2zX0l4ew+OZPnAiveafrn48upDQxwUGAQ5QfhIk5qaLtWxTIxVQHpW7DfBuirfXKLL6jMpmgzCorWfGzkkOfBYhuR8MX/9TsnyCv/SoaxyAHTDXEpeaxI6eMI7kNRJwyEH7GSNRZs1QXSs0jId3O1gw721QFhB/VsPm0mbjTFmJPmUg8b2OXWup03XJCy4MhW1myNoFFoXFBi2FRaAwPhUXzUFg096+NYEFoFEs2xvHAuhgeCItj5dbD7M7KZ1tGHvuNlSSqCtl0yiCnusUOdjcpbpEUEGcfvXtk1iH0yw6ivNYpDM5BdA29WFzD5Fzqpm7kb2h+9Z+p7PsBud4x6kd/gs0zSsPk31HQMoWhqZ/Ucj+5LZMSFecerj+v+4YsIqJqnBH60PvHsbRPo2rsJb2+h7S6btLquj8m+SuER8TZR6jzChKqshiq8Y/JIBShnWhDF6wRodaUXtv1MdrRfMwG4dk+VxAJd6l1jHC2vJWYly08cyRbanPIKGC34QK79OXs1JWRnFPM1sxCueCamJpLwjkryal5JJ7PI/GMlaSzNral5ZNw2sKmw2oWrd0mgWjNZhaGxLIoNIaFoVEsWCeB6NtrNrAgNJKFG2NYEBbDt0OiWRAWx4GsfJ5V2Yk+aybyjIVEVSEHc+tJr++Rb/zddLaKlKjwtgbP6KwMzpcdRPltV9A19KJr6CXfP4GmroeWV/6ZmsG/piLwGi8X+SnruoH3+j9R0nEN1/RP0dYHyPWOSR22zvkXl7KWNa8FC7cP7zxFyEs57NRe4ExlO3r/uCx9pQRAjm+G6S1CP51vTJ4JK86yyvBQCDQKlvlcyo+IJAyeUZmhIOp0ys9O6XlE+lu0tXwmnuhOH7JQvNF7J0iv7WKfoYqkjGKSVIVEnjLPSGFl2EhU2+XsXHK6FOJtS7ezK7OYXeoitqXlszOjmP1ZZexKLyDpuIGFa5JYujaB5WviZs5EIVE8tC6ChWER3B+ynofCIlm0XgLVAyGRfO2JDWw7k81elY0tZ0xszynjaIlX4vMp1Hzkm30bWo3wNtaWqVk1nk+i/fZFgsjiG0NbH8DQ1Etx+xV0DT34X/knzM4BTI5+qgd+QMcPf46+MYC9eZzi9iv0/Zd/5WLvq6RUNKN3DksyAaLvJwgeZe+UANd815/beQ11Ux8HcxuJOmvlyf1pPLzzFI/sOs0ju88Qec7CLl0lpy+2YWyZpLBXKo4KoqrGM4LOPyI3BQpGt2hbFwd+dVMfWcGxK/Lw5eDnNzf8FNcuKEBKARiRnTP7J6RQ8LcFIlvrlVmcL4NnlKz6Xol0es5E5DkTUeelcG5Lipn4tFy5HXxXZjH7ssvYnVnMjvN5bDtvZVeqncTTBjbtT2dRSBJL1iawdG0CS9duZnFIFEtCI1kUtpFFYRt5IHQDC9eHSxYWwcLQTXzzifU8s/N5dp7XcaL4MmerOmRtMm3zuDwuXtdy90154j0qY+ovG4jmhh0GzyhaRy/6ph6Ml/so7byKoamXupG/QlXZgrqqFf8r/4Txch9ZNe2Y3IM4r/w9Jkc/tUM/omrox7JGhNLEGelWWuBKmpgImcUoFHvgVXI7r8n9XGcq2zlgqyPqvJXv70+V9RqeOaYlJjWX5+1NHCv1kVIriZOYW6ewdksNf3ndN2b1MwmbdcYNgkcAxNZ6BXvndYlcWtsleyfB1hcRhiANfCYguh0N3+gNthMED26ZDb3yYGThNjXeIbJcvaTVdXKqopmX7I0cMFWxI6eErZmFJJyzknTeRsxxA2v3nWfVtpM8nniCJRF7+cvH4li+JonlayRPJEC0OCyKRWEbWbwunMXrwlkeLn2/JDSSZesiWRYaw5KQGJJOZGFtlrI2IrsjXLwYXzjf4psLIqEFINgZd9ua/cV7omE0jT3YvEOYnH0UtU9KHqltnKzqNrR1XVg9g6RX+Mmuaaf1tf+GzTNMapmHgtZx2n7w37H6x2U2/tyC8tx7MB/Hcm7rhBgeIFLEou4i2r0t7dNkOgY4fbGNF4vcsijKEwfSeHTPWVYdTCfqrJXdpipeLHLP9jzBgqvwWtaOq+S1X6WoR6L96FzD0ljIYLLI4BmlfOBHFPW8KjdSiqyrCOt+KyCytkxR0vu6NBqjsQ9rs9TWK13AuKR86p2QF2RWsF8mq6adrJp2/vNjkfzlk1v4+tPxfG3VFh4ITWJpxG4Wr9vONx6LZvmaBFas2cyKNZtZvjaGpSHRLA2JZElIOItCNrJsXQQPh0dLAAqN4eH1cXwvIomvrFhD3EsZ2DumMHikBi9lnCvaIu50M0RSQQkisYjuhd382YPo4zUlvXsEXUM/9uZJ9I0B8v0T6BsDWFxS31Kudwzj5T4qAq9xefK/UNh6hayadi70vErHD39OVk0nua3j5LZNYWuewOIbw+QZweAaQucYQHu5H4NrCKN7GINnWH6UwDVToFRSczSKoqSySKmUNpOZAMHNTeg+GJonUDX2cqzUwx5DJUnqEr6z4zgrnzvHmhfURJ6zsFN7geftTZy64OdcdTt69wi5bdOo6wMkpdn5bvJRVu9L4UhuA7bWK1SN/oTSvh+Q2zY9i2EiwvXPBESzFtQ808KU9jHqiXsMvW8aa/vr5HW8jsk7idk9RnqFnwsdV3kwLJEHQ7cE09exH7MlITGsXJ/IY+sTWP50JCvWRrNyQwKPhyexdHUkC1ZtYPkzsSwLjWH52hiWrI2WbfHqGB4KiSfPJ+2QFt8EJs/YrBhZKTml9c7ft3O7rtIvm6C86P+SPy+vwkO4hm75qHdK41wyanowe0dpvPJfsbdPk1XXTe9f/3eKfMPUBK5T13+DqsA1sip92DzDXAhcx+QZwegZQOPoRePoJ9vZi8Y7hNY3iKFlTB4W91m+T2XkYA+enzIdQ5wob+ZZYw1xaQWEHdfx9PNqFiW8IOvdLYw/wrejDvCdHSd5bO95Ht52goxL3WQ0BGQBGyUTW6yHT9PPdUsQCZc5txlpXgB5g5oCjglMbT/A1PIKFu9VMmt7sfqGOWa+KINn8dpoloZEsyRUShqIQurikCie2JTEN1Y8yWPrE/hu6Ga+uyaGJas2sOiJcJY9HcWKkFhWhMSyfO1mlq2JZenazSxdu5kla2JZuDYes6sfo3MEi2cck2sUnWNIzjgpMzS3es+/SyD62KanBNEtrk8UHEXq1+AZlXtsqoZ+jHfiJzSP/hBbfQeOwdcw1bVR0jxM14//hYLmEUo6r5DfOo7JN4rW2Ufm5R4yL/egdvSgunx3/MTP5L3OYW+LBJIovB7Ob+Sxvef509BtfGXDLhYnHmHF9hNEnTWTnFnM4fxGUi91yRGKSGp82uuZBaL5Clm3M/Ec6XVjpNcPo/O/gt5zFZN7kqyabsrbr7Ay/pDscQSIlobMBdEmHg6L4S9XPM2y1ZE8GbWdry1fw7Kno3jgsXUygFaExLIsZIsMICWIMqtaMblGsXgkTTPRgmzwjM6q89zuhtxqAX7ZQXQ3127vvC4fpI3eEdlTF3a/QtdP/i929wDl/mHK/cMUOAIY67poufYPlLdNoK5sJs83itkziM7Vj8bRS7Z7gBzPIFrfANqWexsaPXcd3g5AtzLBdjhe0cL6Yzq+EbmPr0U8x7Ktx/ju7jP82fodLIw/wtoXM9mtv8jpiy1ogzNh70XXbl4QzX0T84HnY69xjZLZOIbecx29axydc4yClmnUF9v4z4+Es/iZeAk0s0C0SQbS4pAoFqzawMLvb2RZaAwPPR7O2rjneOCJDawIiWXBqo13BNHx3DpMrlFsnnFMjmFMnjGJR+Ybn0Xb+TQL8fNODHyeIBKW33FNzjSavZK6UcalbnLbpvG99s/Y3QPUdE7hHvkhuY4eul7/Ge6pn6CubMbQGMDkHsTo6kfr7JNBpPOPYGwdxdz+29U+UEZGwiOJwW153TfIcg7ycnWnPLoy0zFAfs8r5HXfkJkTd6tH+IlANN9YjNvtFkrhb41rFJN3Gp1jCr1jAk3DIDX9PyL+mIY/fXQDS8ISZgFI6YkWBTNsS56OZOGqTTy8Pp4/W7wKS5WHP128isc27eD+xzeydO1mloVsYVlI/Lwgei6zCGtQDFDQWIzuUTkRcqfFrhwD8lmKJ37RIFKyTUTtS++WPJEoUOa2THJ57Mf0/fifyaloxljfTXXPNc4X1dPxw3/BOfVfKOycIK9tArN/BJ2rn2z3AFmufqkg6h74rWlmKzNzQnjS2nGVtLrumWxgXY+clRWqQ3OzhqLWJP7mZwqiuWC6FYCUz9U6RrC1XEPbJPWmaC71k+8aZPmmvSwKSWBJ2GaWzAHRwhCJFyfoPUvXxbM8LJGvPBpK/EspXOoZ58no3Xz1e8/w6MatMoBu5Yk2H9dh8UzK5Etb8xQmj1T3Ec1yv48gkq8vKMSvHGMpKvjnyn1klLsw1nWQ6+gl8Fc/p7hllNKuaVpf+xkmRz95bRPkto5h9A6hdw+R4xkMhnPD6Pwj8j38vN6fOI/n+EZlRoNKIS6Z131DZjxovRLnztYpyRFnNfbJhFfRZCeY/WIS3mcCImW34K080lwPJM+guTyMyT2JpmEIs2Mc7aVetp81s2BtIg9HbGdR6MdBtDgkikXPRPNQWAwPhsZK3iosiaXrEil2Bih293JcU8R/WraGx6P3sDR0i2xKlvei1ZEsDNlC6P4UrN4JKanQNEhe6zQmz5ic9rzTYs9x356A+7sOoqzGPizNk+RcHpA9k8EjhbvnK1qp7H2FjHIXtf2vUNwyiraui96f/G8qem/gf/2/YfIOSTJXbpHtDPIMg3Waz/v9KVPiIpwTKXHB2Zs7zEDjH0Pd1Me56vZZrxGUIY1nRG7q+0xBdCsgzdjYLABlu4JV4qZhtHUDmJ0jGOt7WbxuG8s3bufRiG0sWh0pg2dZqFQDEl5o4bpYHgyNZdG6JP54eSiHswso8PRT2jJCenE9y8K3sviZeBaFbp4XRIvXSCBaves0Vu8ERucI2sYB8tuuYvaOk9d+FVVdz+81iIzeMTIbejH7J8hs6J01Giav/So6Zx+Z1W0YGnsoaBki/YKPvr/7vzin/46X8uu40PcqBR1XyW2ZxNI80yqhcw2T7b196P9Z2VwuncggK1skBHi0zTMAET8X7HChqKpMd9/LkLBbprjvxpRxpMEzSkZVN3m+ScyN/Rw3VvOtp2O4/6kolm+IZ8naaB58ciOPrItm4dMRfP3RtSwKjWFlzA5WRCaxcEMi9z+TyC1iqnwAACAASURBVOKNOzE1dqGpaaGoeYRi3yBffyqapRu3zakzbWHxWilVvmRtFEtC4lgYsQebT+qX0V8ekhvTBMnw9z2xcCvTeUcxuIawtYxi9Qyia+hBW9+N0dVPUfdVGib/Fu/rP5ME+12zibjKdvS5a+L3xe4JRHM/QE1dL6aGPvIcg6yMPcKikAS+G76VBx7bwNKQaJaHRLJkdTgPPBbGIxviWbA2km+sWs+KTVt54JktPLB+K9vScilsm0BT242+oYcC3xDRL6r52pNRLAiL48HQLTwYukVOly8OFlwXhUogMrlG/x1En8qGsbWMYnIPoLscILu+C60jgLV5hJLANS4O/kgu2sp0oDk6Df8Oons0o3sYY2M/ds8IRzQl/PFDq1kelsjjkTv51sr1LH4qgpXh8Ty0ah3fXBnKo+FJfOupjfzF99ayIjKJv3hiI+sOpWLyjGDySVQVXUMPub5h0so9/NGytQoQxc4C0eKQKB4KjWXBxl1kXepD1zSI/vKQNAMnWHxUEij/HURzvFAQRCbfsMxIyGnqIbOhC42jH61zAINnOGijHwOQJIRyFwTf/0fts/NEriHy3UOUNI9z/1NxfPXRcJaFxLN8dTSPro9nwaqNrAyPZ8nqcBY+HcG3n1jH/asjeCgshvvXRPHttVs4f8FLcfcNUis6MHtHsTaPku8bxeYd4j89Fs4DYQlBIAXPUKExMogeDI1lwYadnCtrxeAYllPcotiqLJb+O4hucf3OPnSufnTBWpDWOUB2Uy+ZDT2zzpQfUwoKqglpvfcmg/y7ap8piCo6pjmmKeMPv/0Yj2zcxiPrk7h/ZRhPRG5j+ZpNPLo+isVPb+TR8ES+vjKExes2s2RjHH/yyNNsOZktHVzbpjlf04HJM4bBNYS1eRSLe4BHtuzngbAEHnpGAtGCkBi5aW/x2mgeDI3l/nXbOWKtx+iU6kRW/8e7Ne/E1v19BlHm5R5yXH1oPQPofUPom4el/qtg24DROzZL187gHJfN6P7yCc1/qUE0325jcA2R5xpk6fqtLFwdy8PrEnk8YisLn9jAirWRfC9sMyvWRvDgE2E8EZXMsrBYHo5I4ptPRfCN1VEYmyRtao0rOALEPUJqdRsm3yiGywHizxr59rqEoDeSUuKS9sIm2RN9O2wbz2kqMLlG0V8ewtY8hc4hxfHKOs/tdsvfZxBlufplEOm8g+haxtC3Sp2tRs/Ex72PcxyjY1IGkjwE4ffMPlNPtCfNyl88up7Ho/ewPDSO76yL4+HQWBatWs/y1Rv5ztoIlq2OYHlYJCs3JbMkbDOL1sWxO9VAcZt0Zsmo78fadg2zf4KMS50S89jRy+lSJ9+aF0RS496DobF8MzSZrWlFUrHVMURuyxU0TQNyQfHfw7lbm847KhVMfYNofYNk+wYkL+SbqckI5dQZMchxjM5xDE4JSHrX2KcW5P9dtnsGkXzgdA+wdGMyj0bsYGlIDE9EbmfBynU8GhbNklUb+PZ3V/FwaCQrw2P59uNhPLwhia89sYEntz9PadcEmrourC1TnKnsILOhVxLIbx5H7+lH7+pD7woEQRTHQ2ExPBQWI7O/l4RGsig0hm+vTSDprI1c7xg61yC5LZNoHP1SDUPR4i2SDbp538/vF4jEPdF6RzG1TWBoGUHjHSDL1YvKFSDLFbx/npFZKqoGz6g0jsU5I44vMnS/T5bjG+U+eefwDaN3D2HwDEoVaa9yRwmO32iZIsctNU7ZA6+SUtVKTlMPBe2T7FHn8WColDFbvjaaZWuiWL4mnO+s3cgjazfwyNoNfP2R77M8LIKFazaxaF0cf7kmhoyLzeQ0dKO+1IPWOYDJI02cU9d1kN3YjbV5CFvLMAZPD08/e5Svh0TxwLoYlobHs2RdLEtCI3lo9UaWhUaxZM0WIvacpaxtCqt7CEvzKJlOaVqe0T+F3jUuLQbXWLC/Rtp5s3xDZHslDpU0huTzW8R57VdlrQrRVWnwSCxzwShQikCafOOzppV/GUAsZh1pPBLFS+u+taa38rrvJMmm9X6xKfK72XDSajox+MfJ77iG3j3E2fLWGU8kdSkOYPQMoHdLKU3pdxNk+aUJeWmNA5jbpPF/tmaJR6Vp7EFT38nyyF08FBbNorWRLA2JZHlIBMuD4BH2eMRmlq7ZyJLQaP7j8qc5aqnE5B2ifvLv0DQNkF3fhaauC62jF7NvGFvLMGbfACZfL0Z/LxHHUvj/nljH/RtiWbQxjqUbo1n+TDQLn97I8rXRrFizmfDtxyltGcPqGcTSMoLa3Uu2XwKRwS0dgA1Ce9o1hNY3THbzgASiewxF7vQhqOp65LBSeEYxP8fSPClz26wtUzKIRI3r/wXu3p06p7/s129tmSK7qV9WQBLNnjKIjO5bgWhmzKTaPYK5TdIlzm7qJbd1DHvbBAln9Pzh0lVyiCVAtGzNepav3SA/PhmdwMMbYvjTh58i9Lmj5HoGaJj8W6nTsjqAyTuIoakXg3sAW8sYWkc3adXNGHwBasdeZZ8hnz/+7loe3LCZRes3syw8hofDolj49EaWrYniO2u3sCb+MMX+ISzuAczNw2S7+8j2j2JolkA0A6D5QHTnyRF38yHcasErBQOVykJiyLIQzBCgUZ7j7kb37otYeMqO0Dtdnzyz9Rb2ZQeRcviAwTNK5uV+TL7R+T2ROOeI3wlPZAu8hvpyP9bOK+RcDqC61E5pxyR//lQkf7pyo8TGDnoi2RutCWd5yEaWh0Tw3XWRLHtmMw+GbiGnyo2+oZv2v/ofvFzRQmHnDRxX/wGbZ5hz5R6yatqxNg+R2zqCtWUAS3M/adVN/PF3V/Pghs0sXBfLsvAYVqyLYtHqcJaujuSR0HhWRuzG7u7D7OrH5B+S4nufNJ37zp7oswHR7RaRUobL4BmVFYUEr005REyp861s5fgygeiTvH8hv3Ur+7Jfv1BStbVekT+Twu5XZkCk894aRNk+yRvl97zC+dputD6JIqJz9rAvx86frAzlofWSYunikCiWhMTMAGnNJhaHhrM0JJIHntzA159YxwnrBQz1LZLKzI//O2X9r3P56n/9/9s7z++2rjPd03HGybI9iW3Zpii5qVldthopWSxiUbUly3HiSXztWL1RklXY0Bt775TYKQAHvZAEQKIDbLJlO4kz686sm9y5N7Pmy/0vfvfDISBKlkssO5Jm8cOzNoENAvscnAf77He/7/PQ7P2EluEZGkdnqB+eosIaQKkfRW5woxZGKbeO8tz2XSzK3M3Lmft5OTOPFZkFLMnIY9nWfNbsOMDSjLeo0XsoN46jMftR20JIzKF/OInutoaRDo5R1u9NqnQmXjdX301pCCIZ8CX3ZRKk++9Aorkz8t2gNP+4pRT3Mv6EqGfiziHxHfZN/uVOBdRbJJq7PpBZIyjNMeRChJKBUUr73NS64lSafDy1JY9Ve99l8fZbWglfwWxWwYLXsnjtrfe55ptBPTBKq/dTLF/8Fy2BP6E2hCi3hrk6/gXXp/8XV4N/RGXwcKnTjGzAQc1wmBr3GJt/c4TUjDyW5OwnLT2bZdsLWLZ9N8vSC1ibeZCF6/OoGHCjM4yhEsbQOiL3hUR3u62702RKoQ9QdG2Usr6x5GtLeke5fNUl1r/MkTOeS7qHlUTfJbDwII//Tr2Ncmuc/ok5JJJbIrNroUByf0DsEyNzKtOstKthDEn/MIrBUd4t1vDostd57cBvRXnfO0i0JONWwd0L2/ew8eDvKay+SqMjSrUlRHf4S1q8n1HU7eJypxvL53+j2hym+KqTCmuYntifuBb5AxW2cUp7bFQ5vRy6LOfpzVkszzvA0xvSeSU9nxWZBazYtpv12Yd4ankm2l4HWr0PpdFHuSuGxBxCaRbDs/fjdi5x0hORt4SIYEnvKKfqBQqbrclftoudDs61Wijr9ya9db5OOPFhI9HDPv6Ee4RaCFPjEnXuOkP/eudMFERjConh7VkSidOrmNJR47lBaZ8brXGcC02D/HzVVpbufJO0jFxWF7x9G4FukUdMGF28Yz+nytvpGJlC2e+l+Kod55//H4VNJkoHfRg++Rsd458j6xmhrMdFd/hL7H/6G12hz1GbPSgH3JRbRzmqbeCXG3ewMv9tnli9kZe25LAyezevbt/D+p3v8MTLGWh67Gj1PhQGLxXuOFKLeAz3e00kGxpHa47SOPoFNa4ZintGOFFr4EKbA50lhnRwjPOtds40CZT2eahyTFHjmrlNG/xhvggTM2siePKwrYkS35F0cIwa1wwNI5/TP/XXOzZbDX5Kel0U94+gtsZEKV5zLFlNWDIwito4RoMzyrpDh3klex8LNu4gLT2btC1ZLNoohq837P0Nz6zPZvWud1mwOY8n1+/kvdJaqoQAGlMArSkwayx1S7ZWZ4oi7RsWNaI9NxA+/Q8qrAGO11zD+qf/oMkzRaXdi+SagZ+t3sxL2ftYkbefhRu2szpnP0u25PN67rs8u2onJc1DVFtClPS6kBp9aNwTlA757zuJKmwTScuPCtsEJb2jnG40UtbvpSP4Z4p7RjhaPcCHum4uX3XddtHVDX/y0JNIa45S1D2cVChVGUPUj3xKUffwQxHi/jrcRiJRT0wUb9DOitolFCuVlhDSwVGaPDMcr2gX7R635bEoI4eXMrJZkpXL0xvSWZ17gH9asp4tbx/m6U25PLt1N9kfXUbW454lTyhJnkStj84SQ2eKUj88hXJgBPsf/wuN4Od8q4HB6f+J4ea/c7HdQLM3Qlm3gWX5B1mwMZMFGzLYUPAOy3fks37nQZZt2c3TK7K43NBP8/AUakHceVc5J9Dap9Ca4veVRHN9XKud0yj0gSRZ+qf+St3wJxT3jHCuxYZsaJwqxxSJtcR3uaV70C/Ccmucsn4vjZ7PknstjZ7PKOv3PhQz0XciUblrgnKHKD+U0K5OmM3qnHE0pgD1w3HWv/MRC7ftInVLJiuy81m6PYe1O8XgwfPrd/DyG7t4fnMuS3b+iue3H0DWP0K9e+abLzAhglLvQ6cfpzv6Z043DNIwMoHlD/8HpTBCZ+ATrt/4I0Pxzzlb3cojqctZkbefBau3cPBoIa9u38OrGftIXZfLmfIO6h0xKuxhZMIYUou4v3W/Z6IEiRIzkXRwjIudDhT6AO2BL2nyfi4GG2a9dBLRuoRp1cNEorsFQCrtkyj0ARo9nyUjXY2ez5Bf99+TK8MDRSKtI4bGGb9lpGQOJlUi64ZnqLJHOFzRwZNbdor+QFuzWJu/h1d37GTlDjHcvCg9j+W5b/PMphye2bqPEzXXkA2Ivz5ilu9sCpEgpovMJVFRl41m9zSlXXaKr9ox3vwLlbYgGosXyxd/pTd+k2rzKLJrBg6eLeHnK9ZzUqpD0XKVtLXbWZ99iCXp+/igtBrVgAeN2Y/C7KfE6EdmDN93Es0VyFcLYS51OTlZZ+Rciy3pUHCpy8n5VjslvaNJK8RE+s/DRKK7IbHLX+u+kbxVrXXfQKEP3JPJ1gNDoqQ/zBzZYKVZzJPTuiaocc0gH/KwZNdv+OXGLFbkH+DlbTmszd/Dim2ZvLI5g+XbxETQxRm7SE3fS94JCXVuMVVCZYmLnpzCBFIhisIUQ2GMoDDOhoKNYSqsYWosMaR9w5RbQujM4yiuj2D78n8jH3TT7I1Qbx/j96pqfrEug41vvYukoZMVmQWsyXqThat38MLG3fz2SjlavQ+5fgSlJUCZKUjpkP++RefmXkTJPRFDkCvX3JxtsnC+1U5pn4eyfi+Xupx83O5MOnAkZq4a1zfP5A8DiRKz6txS/XJrPCkq/6CP/zvNRAnXsgS09gkq3TOobREkg8P8i6KZnyzZTNqOXazZ/Q6v5hSwKiuP5RlZpK3bxOJN20jbmsvzm3NJ/80pGpxxyno91Hu+oNQYRWqeQGaZRGqeQGqeQGGKziFRFOWQF+31MZo8N1AMeijutqMRfPTE/0CtO0xhSze+f/tPPm7oIi0jj2sjY2ze8yseWfAiy7fl81jaGp5ansmvzitpHZ1BZw2isgZROuI8CNG5BCnm+v0o9AHUQjhpOpzIWLhzBkvY1zzMJJprZXKnA6Nk4PtLVj0wJJJbbmXQJshU5Rbz5Ir7Rzha1c2yfb/nidd38mLWfpZl72N1bj7LM7JYnr6NF9dtZvGmbazMPcSKvENU6kdR6kV1TYUpisI2TZlxgjLjlAhB3LyVG2bLFAwhirpsVBgD1I9Mc7nDQoU9iHzIQ2mfFceX/xfzF/+G8/N/p7itj8sNV1m37wDpB37DlapGzsiqeOPND1mwMofcDz6mw/cpVc4oKmsQtWsymTt3P0mUEE1MrIkSSISya1xiZW+lbTo5ayVlf7/J7vEhIVHiByMRobzTpfxBH/93monK7dNoLBNJK/SqkWkqXZNcaDdxoKiClJfXseat91i8vYC09GxWZhfw0qbtLM/IZvGmbazd9SsWbM7jctMAja4Y8iEPRd3DlA75KTVGKTNHKTNOIDHFkRkjSRKpjCHUhhD17hnq7ZNohRAl1xzozAGk/R6q7BFqnBHqXEFOVLXhuPkXjsprWJL1JsrOQba//QE7Dn6AoqGPpRn7WbPrt9Q7IlQ6IigtAVROcdZLkshwi0hKSwiZNZQshbgXa5C5J/ZuThJzfUITfQnHisQFpjFFbvPHLev3fmfT5Qf9IpzrzD7XjTCRP/igj/+uEGKkJB6ojVGU+ghV9k+RCxEqbDF01iBas5fLXQM8vS2LFW++Req2LJbs3MXqggMs2pTJsu272VzwHi9t3cOjy7bxnryJ+uFJqhwxtGZRJbW430NRvw+lOYbc8tWLNJEBrBUiaPShu9qDiL5DUWqtUQajX7Ii79cUN/VzVFKFrLGX1DU7ePd4Ebm/PsZrb31AnT1IUbcDmeBDZRdrXxJrouRsJIiZGDJrIrVpHvP4+3E7iYxTlPSFqHF+gtLgRz40Sv1ogIwPD/NCfh6p2TtYlJnFwoxMXtiayZLMPbySsYfUTbtYmH6Q/RcqKR30UesVbSoSjt0J0XCl+eujL3NJlCg/vhPNns8p63RSIfg5qevgSkM/C1/LJePgB5xV1PF6/q94dcdBluYcoNYWQGn0oHNG0LknUVsnbiORNqFQI0TnSTSPe0KSREohikKY4GKvnyrXJ0j7fejM45yr7+LpLdt4OTefZzdv5ZWcXBalv8EL23NZmXuQX67L5sm1OWS8fwGNKTTHzUw0wU04kSX2nb4OCRJpDWFUpq8SSGuKU26O0er7nEtNJt4vreEjaR37fn+JvN+dQlJ3jade3cKzq98gLb2AGqufcvs4lcNxlLYIUkN4nkTz+FGQJJHKFOPygA+NdQaVJUqlLUyVeYxl+YdYkrOHhRvTWZyxg2U5+SzfWcCynbtZtC2Px9dmsu7QYS61m6lyTMxmOYSRGYPJTdtE2PybBjKXRJo5F3lCGEMrxGgY/hRp3yiqPi8X6vr4+crtHJXUoGwfYnXOAVLXbGPRaztZlLGLKosXrSWA2hakaMjHpR7PPInm8aPg1kxkjnCxz0O19yZS4zjtYzc5qmrip6+sY+OuQyxal86qzHxWbM9j1c79LNyczU9f3cSqtz7gVH0v1c44Skto1vI+fJtFusry7SowKvMsiYS52s6xJDRCTFTuMQQoN/iRXLXy5NocnlqzgxczCliV/RbL0nex4o03WbxtN1r9CCrBi9Li58qgF4k+OE+iefwouI1ExUY/upEplCY/OvM4S/PeYfHWPF7enM2yLZmsmS2ye3lrHj9bvoknN+XwQXkzTf5PkRg81Hhu3OahKTMGUQghcTb6loF8G4mU5hhac5Tiq04qhSC1Jj+pW3bz6IsbeGZDJmmvZ7N86y5WZYladtIeOyrBi8YeQmoKUDX86TyJ5vGj4HYSCV5U7ghK6xj7C+U8uWYrm3b9mkVrMli6KYd1b+xh6aZcFq7P5sWs/Ry4oEJt91Mb+ITLQ8NUj04lXczU1hgSvR+NTfSvKer7dmPcueuz21KEZiEZ8NHsuYlyyMvZmh42HzrK9neP80rmXl7aksfijTmszDzAgtezKbtmRW3yoXWEkQh+akY/E8PL8ySaxw+MWySyhCgRPFR6o0gNbh7fkE1aRh4rdxSwatseXliRztbsAyzbnE/qxp3sPV1MjTNG/dgNrli8yF0xig3jSY/MhG9R9cgnVLimOdls/tbBfBuJaj03udhuRSP4aR+dJjV9P4sy9rDprd+xYsdeFm/MYXX22zy/ORdJtw2NeQyVNcCl/tH56Nw8fjSkqIUwkgEfWnMQlc1HnS/Mkn3vkJqRx5qCd3h1+x7WZb7Jum17WbxqOwtezSD/w3PoBt3UDk9QavJS6vCj8Uzf84U493ZOKcRQWcR0HRFxJEKQKscExd0Oqsx+dh65TOqW3bySuVf0QNpUwJL0PTy7MYeiDoFymxhYKBN8YnDjW0j0XdzS5zGPO5GiMkRma1ditPkneFeq4amtWaRuzWHZjj0s3pBJ6uoMNuS8TeqqN9j1fiGSNgO1thAaUwCpKYDEHqbEErhnEn3bTCQXQlQ7JyntdVFl9rP7RCnPbS0QlX+y9vPK5jyWZuzl2Y05XG4zoLP6UVkDlBnFBNh5Es3jx0BKQkSwfngSrcnFyt1vsjgzn+c2pbNi5z7S3/oX0jbk8PzaTN545xglzUN0em9Q64ghM/iQmYNIbQFKBDH36V5T2UUdM5E0MtMtJEhUYYshHRih0jTOoUtqnk/fxctZog7dki35LM3Yy/Obc7nQ1I/O6kdp8SM1BZirsfB9bufmSTSPr0OKQh8QzbCM47xzoYTnNm5l/e43WbQ1k1U797Mq/yBpW/NZnvs2Ja2D1FlD1DnjooO0Q9z7KTH6ZzOlf6iBielBc0kkmxVKKbdGkQ95qBDG+L2qkYXb9vBCpuhVlCBR6pY8TtdcRWMeQ272orCGv5L2M78mmscPhRSlIUilfZJT1ddYmV3A4vUbWZOVy6rMXSzPyiMlbSkv5+ynsOEaVY4A1Y4wMsM4CnOQquEbqM1xSgbH0VhmMxJ+gKKqhM7dbTCJhFVZwygNosD9+cY+UjN280LmHhZn5LN0awFLM/aSll7AUV0rapMPqdGLyh69dTs3WyJ+NxLd3eT5qw7q85jHXKQk9KC3v3+ehas3kr4zj3UZWazakcfr+w6yrOAA75Zp0FhGKRl0orYF0TrEzVStdQq1OY58cBzZgP8HG1SCOHJr/DYSyW1RFGZRdF9l8CDtsbJw2x4WZe4mbWtukkSLt+3mQ2UDSqOHMr0HrWviO81E8ySax/dBSrk1TpVjip+tyeaZl9awOT2LZes2s2jtJpZk5fKhXEO5dZTiITvn+mxcuT6Cxj2Bxj0l1gLpxYI6eb//ntPxExuyUutdZqPZbGu5KYDOEkKpH6VS8JK2fS+Ld+wmdXMOy9J3sTRjPy+8sYv3SiuRGUcpHhylfHjqO5FILoS+Eff7y5rHg4kUrX2CctcEKY+/xJNpS/n5E8/w8wVpPPHCch554lkKTpyjwuah0h1CbfdzvtdJ8XUvatckEn2Q0t4xNIYY5cKcBNOkXUvgq+0cYUi59av9MmsoeVFLzVERVpFISnMEqSlAuTWKUu+l2hHmuTf2k7pjH89t2jlr5yL6Fb1fokWjdyHpd1M3MolaEB3zEuUPCQIpzTEklvAPS6I5djXz7X//NuVyn5v3K66S8rM0Up5eTMpjv+DRf04l5WfPkPLokzzyyBP85PFU1h06jNYkGuPKTQFkxjAlhiBFg36KBoNcGRhH6RBNopT2oGgW5RDLs+X2ACprEIUjiNIeQuUIia9zhtA6wqhcYVT2KLrROFrXBBqnmHktMwcpM45TbPBRMuRB54xyucdBhS2C1hZFZfBxscOMpHeER55ZyoKVr/N42is88cIy1ubs5oNiOZpeE/VWDxWCF7Xeh9o4lhRgSRC0zDpJmTVOqRBAYfajdUTQOiIozH4kBi8Sgxep0Zd0kft2+B/IVusIIzGIqVAlQx4kBi8qaxCpMCp+Hw/IOL9vq7KK11niscI8jsLsR24aQ24aR2WddQEUfEiN4npZbhpHafHf0/GnnGrV83G3jYwPL/Lrs6X8+mghvztbxO8KJXxUrOW3Hys4eEbK2aouqi0BdOYgOksEtVVcs8htUcqsk8itcSTmEDLBl4TU6EVq9FKmF9cml/ucXOl3UTw4jNToQ24SMwq0dpFMpSYvpSYvZWbx/+WmMWSWceRW0UO0yj1BpT1KjWuCsv5htCY/lbYw8kEfKf+0kMdfWsHCpWt5+pWVPPKLVFIe+wVPvbqRdwrLqBhyoDOMohLGUAjjSC23SFRqmUBqmaRMCIuila4Jyp1TqKxiNrpMEGXDvvEXyTKrHGvyP7DQWEPIDD5U5gAyg4+y6yOUO6LIjWNUuuL3fXz3CpU5gMocQGnyoxDGk5Abx5Abx9DZI2is4nckN44hM/hu86j9vp+bcqbNgtIWQTHoQddnpbrHSt2Qi7ohF9fcMa6OTlGpH6XOHqTGHqXWJc4W5c4pNK4ZNK4Z1O5ZWGOobWIETfT/DCWhMAfROeOiLJc9isYevfUaUxBFQuPAEhCtDgc9XOl1c6nLzscddi60WjnbKHC+xcLxqj4OXKriSEUPZxqMHKvqI+XpFaQ8+iQpjzxGSspPeSTlMR5JeYyUlCdJ+ckvSHn0GXTXPWivj6E2BJLyyFIhisw2gdw6hdoYpdwimm5VO0TjLbVRFA5JOMB9tY0ly8E1phBac5ikBecDBq05jFoIojT4qbDFkAx4aPLeRGsO0+S9ed/H90Mc39zzrxaCouujMYDKGKB+5Aa17mkq7fHkuUhIZyf+7/t8fyniBRAWnekMPmqNPhrtPsoHRqg2jlFt8qMzjHE1+Afq3BPUuKaocE2jdk2itE2Ii35bHKk5ilxIKPwHZrUD/LP6AeOznjx+FPoA6D+1KwAABuRJREFUkgHPrPuBgwttDs63WSlstnGmzcKpdhtn262cb7Vzod3Gx+1OLrbbudjupLTbSVHnMGcbBY5XD1LcYaewwYKy38sp3VWkdT0oa6+irL+GoqEXaV0Plys6OS5r4L1LlVQM+dAZxsSDN4aTVokqSxyVZQKtSQyy1LlvUue+SaVtWgyJm+LozBNfW3GbLBycTVvSGIMPdCsf9FHr/ISyXg8d/i/RmcK0j//hvo/rXlutEEJniiYfqw0BNEbRvlRtCNHsuUnjyE1qHJNUWOLJfrUhcE+fm1LnvonKGEI+OE6lLUKFMUClJYRS70M14KGsz41kwMPA9F8od02gtU+gscaQWsIUGca5ODDKud4RCq+5Odfp5ON2FxfaHFxoE0UIz7c6ON/q4FyLfQ5snGuxz+m3c6HNyYlaAydqjZysM3K6wczZJguFzTbOtdgobLZxvHqQE9UGjpb3cbrKwKUWKx8peyhpd9Nqn6a610Ntj4Oqq1Z0HTa0XXYqekZoMgZod01RMTSGbshPuT6K1hBOFgAm94+Mcaps09S7b1Ln+pQq23Qykqebs790N8x14NMawslWfUf7j+6f22r0odlI6hjV9hnKej10jv8rOlOUdt+X4jkRYg/U+P+efp0x8pXxqwyi5IBSH6Zl9HMahj+jxjGNzhRHow+h0ofR6EOoDZHv/fkpWuskMn1IFOzQh7jU7aao10txvweZMUhR3yhnWqxUuKaRGgKUGMUitwu9o5y55uZEh42jrQJHm02cardxuvUWTrVYOdVi5WSzhZPNFs51ujjX6eLsbHuu08X5LjeFHQ4KO5yc73JzrtNFYYeTM212CpttFDZaOdNo4VS9ieKrHlSGKKqhEKqhEDXmKVT9ATSDIRrdn9Jun6LFGKZmwEejEKF75Cb943+kzTGDdjCAbsiPxhCg3CCeOK0hnNQD15riqK5HKDdNUm27QbXtBjphAtX1CMqhMGr9rFP2N+Fus5Mpflv7j+6fC7UxisoQQTEUpNw8QVmvj6bRL1AZIjSOfnHX97jf4/+6/jufv9sdQ6IuTWWIoDJEqHPfpNpxg3LL5Kwwj7hFozLcqmH7PuNLudjr5UL3KCXXgxxvcfJRo5kjzVY+ajRzrnuYwp4R3ivv5aMGI6c7HZzudHCq08rJDgsn2s2caDdzrPU6R1uMFF4bpvCqSJKznS7OdDiTON3u4HS7g5OtNk622jjebOFYs4kjDQKH640crjdyos3ByXYnZ7qGOd/jpXhgHKlBTNlRWeKUDvipss9QZRd1tSvMM1RappH1B5D2jlFnnaHZ9RktwzepsU2hHvQj7R5GNTCOzhhBfV3UtxNv5cJJVaGEhJVkKIjSOIHWMoPGPI3CEEcyGKZsIIRkMIzSODGLqTl/T6AUYiiECe5MmH0QoDLFUJjEVmmOUXY9gFyIIBkKUtI/jtY+hUQfROOcnlViengh3pbfyvxXmESVJ7kgyrNpbJOoLHFkxjBSQwjJUBCpISQq8ZqiKM3x7/W5KSc67HxQf53DTTYONzk40enjbNc4/6PWzMmOYS4O+PmwwcAH9Xo+bBjiowYDh5uGONpi5HibnjOtBk51CpzqtHK81crRVgvH2sRWhEjKIy1mjrfbONFh51SXk8KeEc73efh4wMvlwXGK9QFKhBAlQohSU5gSi7hPlMxWMMdRmKLoHDNobJPiAczu85T0j6MwRUVth+u3TppcmNV1E6JJkzK5EPpKBoLKKsonFw36KRNiKGzTyK1TSIwxiodCXBkIUDQYRGaZTCKh5nobTF/N9xMx8Q19/7h+uTnOlYFxZKYYl/p8XBkYR2KMUDTo/5b3ejDG/12OT26OJ5+XClGkQhSJMTbbRigzhCkeCsxuzfgpHgogMUbEANP3/PyUY10OjnbaOdLm5HjHKMe7fBzv8nGs08vxtmGOtTo51iaS4OxVF2e6nJzudHC2Q+BMu5HTbQZOteo51nqdIy0mPmqzcKTDxrEuBye73ZzuHeFsv4fCAS9F5vA34rIQ5IopdNtzxZYIZUKYUlOYUmOIUmMIiSmCRAhTJoh9ZUKYMkOYUlOEUkOcUlOEYlOEktnnk/8vBMT3MAUpNYl7UEmYgkkCz2Mefw9SjnRYOdxl52i7gyPNTj5qdnO4ZZijTU6ONDo43GThSKONI00WTrdaOdkmcKbdxJl2E6c7BS60m/i408S5LjMX9R4u6L1cEMYoMgUotoaQOmJInDFkzjil9ghltltIPJ7bJjD3dWU2MRVIYgkjs0XFtKA7IDVHZ/d7pim1TCAx34LUGrsDEaQ2UflUbgkhswbETVfbna/7exG5KxLjf1j6ZZa7HUvsO73XgzD+f3T//wfjJDlruP1RhgAAAABJRU5ErkJggg==;" parent="1" vertex="1">
          <mxGeometry x="20" y="337" width="140" height="120" as="geometry" />
        </mxCell>
        <mxCell id="xJ5-u5F0QFQdtjybD0cR-1" value="" style="aspect=fixed;html=1;points=[];align=center;image;fontSize=12;image=img/lib/azure2/compute/Function_Apps.svg;" parent="1" vertex="1">
          <mxGeometry x="306" y="208" width="79.33" height="70" as="geometry" />
        </mxCell>
        <mxCell id="xJ5-u5F0QFQdtjybD0cR-2" value="" style="aspect=fixed;html=1;points=[];align=center;image;fontSize=12;image=img/lib/azure2/compute/Function_Apps.svg;" parent="1" vertex="1">
          <mxGeometry x="720" y="208" width="79.33" height="70" as="geometry" />
        </mxCell>
        <mxCell id="xJ5-u5F0QFQdtjybD0cR-4" value="" style="aspect=fixed;html=1;points=[];align=center;image;fontSize=12;image=img/lib/azure2/analytics/Event_Hubs.svg;" parent="1" vertex="1">
          <mxGeometry x="312.5" y="364" width="74.82" height="67" as="geometry" />
        </mxCell>
        <mxCell id="xJ5-u5F0QFQdtjybD0cR-5" value="" style="aspect=fixed;html=1;points=[];align=center;image;fontSize=12;image=img/lib/azure2/analytics/Event_Hubs.svg;" parent="1" vertex="1">
          <mxGeometry x="720" y="363" width="74.82" height="67" as="geometry" />
        </mxCell>
        <mxCell id="xJ5-u5F0QFQdtjybD0cR-6" value="" style="aspect=fixed;html=1;points=[];align=center;image;fontSize=12;image=img/lib/azure2/iot/Stream_Analytics_Jobs.svg;" parent="1" vertex="1">
          <mxGeometry x="522.14" y="370" width="71.51" height="61" as="geometry" />
        </mxCell>
      </root>
    </mxGraphModel>
  </diagram>
</mxfile>
